<svg xmlns="http://www.w3.org/2000/svg" viewBox="0 0 320 55" role="img" width="100%" style="height:auto;display:block">
<title>The five paylines: MIDDLE, TOP, BOTTOM, V, CARET</title>
<rect x="-1.5" y="6" width="9.5" height="9.5" fill="currentColor" opacity="0.16"/><rect x="9.5" y="6" width="9.5" height="9.5" fill="currentColor" opacity="0.16"/><rect x="20.5" y="6" width="9.5" height="9.5" fill="currentColor" opacity="0.16"/><rect x="31.5" y="6" width="9.5" height="9.5" fill="currentColor" opacity="0.16"/><rect x="42.5" y="6" width="9.5" height="9.5" fill="currentColor" opacity="0.16"/><rect x="-1.5" y="17" width="9.5" height="9.5" fill="#ffb300" opacity="1"/><rect x="9.5" y="17" width="9.5" height="9.5" fill="#ffb300" opacity="1"/><rect x="20.5" y="17" width="9.5" height="9.5" fill="#ffb300" opacity="1"/><rect x="31.5" y="17" width="9.5" height="9.5" fill="#ffb300" opacity="1"/><rect x="42.5" y="17" width="9.5" height="9.5" fill="#ffb300" opacity="1"/><rect x="-1.5" y="28" width="9.5" height="9.5" fill="currentColor" opacity="0.16"/><rect x="9.5" y="28" width="9.5" height="9.5" fill="currentColor" opacity="0.16"/><rect x="20.5" y="28" width="9.5" height="9.5" fill="currentColor" opacity="0.16"/><rect x="31.5" y="28" width="9.5" height="9.5" fill="currentColor" opacity="0.16"/><rect x="42.5" y="28" width="9.5" height="9.5" fill="currentColor" opacity="0.16"/><polyline points="3.25,21.75 14.25,21.75 25.25,21.75 36.25,21.75 47.25,21.75" fill="none" stroke="#ffb300" stroke-width="1.2" opacity="0.85"/>
<text x="25.25" y="50.0" textLength="28.8" lengthAdjust="spacing" style="font-family:ui-monospace,SFMono-Regular,Menlo,Consolas,monospace;font-size:8px;font-weight:400" fill="#7a7590" text-anchor="middle">MIDDLE</text>
<rect x="65.5" y="6" width="9.5" height="9.5" fill="#8b7fd4" opacity="1"/><rect x="76.5" y="6" width="9.5" height="9.5" fill="#8b7fd4" opacity="1"/><rect x="87.5" y="6" width="9.5" height="9.5" fill="#8b7fd4" opacity="1"/><rect x="98.5" y="6" width="9.5" height="9.5" fill="#8b7fd4" opacity="1"/><rect x="109.5" y="6" width="9.5" height="9.5" fill="#8b7fd4" opacity="1"/><rect x="65.5" y="17" width="9.5" height="9.5" fill="currentColor" opacity="0.16"/><rect x="76.5" y="17" width="9.5" height="9.5" fill="currentColor" opacity="0.16"/><rect x="87.5" y="17" width="9.5" height="9.5" fill="currentColor" opacity="0.16"/><rect x="98.5" y="17" width="9.5" height="9.5" fill="currentColor" opacity="0.16"/><rect x="109.5" y="17" width="9.5" height="9.5" fill="currentColor" opacity="0.16"/><rect x="65.5" y="28" width="9.5" height="9.5" fill="currentColor" opacity="0.16"/><rect x="76.5" y="28" width="9.5" height="9.5" fill="currentColor" opacity="0.16"/><rect x="87.5" y="28" width="9.5" height="9.5" fill="currentColor" opacity="0.16"/><rect x="98.5" y="28" width="9.5" height="9.5" fill="currentColor" opacity="0.16"/><rect x="109.5" y="28" width="9.5" height="9.5" fill="currentColor" opacity="0.16"/><polyline points="70.25,10.75 81.25,10.75 92.25,10.75 103.25,10.75 114.25,10.75" fill="none" stroke="#8b7fd4" stroke-width="1.2" opacity="0.85"/>
<text x="92.25" y="50.0" textLength="14.4" lengthAdjust="spacing" style="font-family:ui-monospace,SFMono-Regular,Menlo,Consolas,monospace;font-size:8px;font-weight:400" fill="#7a7590" text-anchor="middle">TOP</text>
<rect x="132.5" y="6" width="9.5" height="9.5" fill="currentColor" opacity="0.16"/><rect x="143.5" y="6" width="9.5" height="9.5" fill="currentColor" opacity="0.16"/><rect x="154.5" y="6" width="9.5" height="9.5" fill="currentColor" opacity="0.16"/><rect x="165.5" y="6" width="9.5" height="9.5" fill="currentColor" opacity="0.16"/><rect x="176.5" y="6" width="9.5" height="9.5" fill="currentColor" opacity="0.16"/><rect x="132.5" y="17" width="9.5" height="9.5" fill="currentColor" opacity="0.16"/><rect x="143.5" y="17" width="9.5" height="9.5" fill="currentColor" opacity="0.16"/><rect x="154.5" y="17" width="9.5" height="9.5" fill="currentColor" opacity="0.16"/><rect x="165.5" y="17" width="9.5" height="9.5" fill="currentColor" opacity="0.16"/><rect x="176.5" y="17" width="9.5" height="9.5" fill="currentColor" opacity="0.16"/><rect x="132.5" y="28" width="9.5" height="9.5" fill="#ffb300" opacity="1"/><rect x="143.5" y="28" width="9.5" height="9.5" fill="#ffb300" opacity="1"/><rect x="154.5" y="28" width="9.5" height="9.5" fill="#ffb300" opacity="1"/><rect x="165.5" y="28" width="9.5" height="9.5" fill="#ffb300" opacity="1"/><rect x="176.5" y="28" width="9.5" height="9.5" fill="#ffb300" opacity="1"/><polyline points="137.25,32.75 148.25,32.75 159.25,32.75 170.25,32.75 181.25,32.75" fill="none" stroke="#ffb300" stroke-width="1.2" opacity="0.85"/>
<text x="159.25" y="50.0" textLength="28.8" lengthAdjust="spacing" style="font-family:ui-monospace,SFMono-Regular,Menlo,Consolas,monospace;font-size:8px;font-weight:400" fill="#7a7590" text-anchor="middle">BOTTOM</text>
<rect x="199.5" y="6" width="9.5" height="9.5" fill="#8b7fd4" opacity="1"/><rect x="210.5" y="6" width="9.5" height="9.5" fill="currentColor" opacity="0.16"/><rect x="221.5" y="6" width="9.5" height="9.5" fill="currentColor" opacity="0.16"/><rect x="232.5" y="6" width="9.5" height="9.5" fill="currentColor" opacity="0.16"/><rect x="243.5" y="6" width="9.5" height="9.5" fill="#8b7fd4" opacity="1"/><rect x="199.5" y="17" width="9.5" height="9.5" fill="currentColor" opacity="0.16"/><rect x="210.5" y="17" width="9.5" height="9.5" fill="#8b7fd4" opacity="1"/><rect x="221.5" y="17" width="9.5" height="9.5" fill="currentColor" opacity="0.16"/><rect x="232.5" y="17" width="9.5" height="9.5" fill="#8b7fd4" opacity="1"/><rect x="243.5" y="17" width="9.5" height="9.5" fill="currentColor" opacity="0.16"/><rect x="199.5" y="28" width="9.5" height="9.5" fill="currentColor" opacity="0.16"/><rect x="210.5" y="28" width="9.5" height="9.5" fill="currentColor" opacity="0.16"/><rect x="221.5" y="28" width="9.5" height="9.5" fill="#8b7fd4" opacity="1"/><rect x="232.5" y="28" width="9.5" height="9.5" fill="currentColor" opacity="0.16"/><rect x="243.5" y="28" width="9.5" height="9.5" fill="currentColor" opacity="0.16"/><polyline points="204.25,10.75 215.25,21.75 226.25,32.75 237.25,21.75 248.25,10.75" fill="none" stroke="#8b7fd4" stroke-width="1.2" opacity="0.85"/>
<text x="226.25" y="50.0" textLength="4.8" lengthAdjust="spacing" style="font-family:ui-monospace,SFMono-Regular,Menlo,Consolas,monospace;font-size:8px;font-weight:400" fill="#7a7590" text-anchor="middle">V</text>
<rect x="266.5" y="6" width="9.5" height="9.5" fill="currentColor" opacity="0.16"/><rect x="277.5" y="6" width="9.5" height="9.5" fill="currentColor" opacity="0.16"/><rect x="288.5" y="6" width="9.5" height="9.5" fill="#ffb300" opacity="1"/><rect x="299.5" y="6" width="9.5" height="9.5" fill="currentColor" opacity="0.16"/><rect x="310.5" y="6" width="9.5" height="9.5" fill="currentColor" opacity="0.16"/><rect x="266.5" y="17" width="9.5" height="9.5" fill="currentColor" opacity="0.16"/><rect x="277.5" y="17" width="9.5" height="9.5" fill="#ffb300" opacity="1"/><rect x="288.5" y="17" width="9.5" height="9.5" fill="currentColor" opacity="0.16"/><rect x="299.5" y="17" width="9.5" height="9.5" fill="#ffb300" opacity="1"/><rect x="310.5" y="17" width="9.5" height="9.5" fill="currentColor" opacity="0.16"/><rect x="266.5" y="28" width="9.5" height="9.5" fill="#ffb300" opacity="1"/><rect x="277.5" y="28" width="9.5" height="9.5" fill="currentColor" opacity="0.16"/><rect x="288.5" y="28" width="9.5" height="9.5" fill="currentColor" opacity="0.16"/><rect x="299.5" y="28" width="9.5" height="9.5" fill="currentColor" opacity="0.16"/><rect x="310.5" y="28" width="9.5" height="9.5" fill="#ffb300" opacity="1"/><polyline points="271.25,32.75 282.25,21.75 293.25,10.75 304.25,21.75 315.25,32.75" fill="none" stroke="#ffb300" stroke-width="1.2" opacity="0.85"/>
<text x="293.25" y="50.0" textLength="24" lengthAdjust="spacing" style="font-family:ui-monospace,SFMono-Regular,Menlo,Consolas,monospace;font-size:8px;font-weight:400" fill="#7a7590" text-anchor="middle">CARET</text>
</svg>
