# picocad model
mtllib tom.mtl
o tom
v 0.75 -0.5 -0.75
v 0.5 -1.25 -0.5
v 0.5 -1.25 0.5
v 0.75 -0.5 0.75
v -0.75 -0.5 -0.75
v -0.5 -1.25 -0.5
v -0.5 -1.25 0.5
v -0.75 -0.5 0.75
v -0.75 1.25 -0.75
v 0.75 1.25 -0.75
v 0.75 1.25 0.75
v -0.75 1.25 0.75
v -4.5 -3 0.5
v -3.5 -3 0.5
v -3.5 -3 -0.5
v -4.5 -3 -0.5
v -4 -1.75 -0
v 3.5 -3 0.5
v 4.5 -3 0.5
v 4.5 -3 -0.5
v 3.5 -3 -0.5
v 4 -1.75 -0
v -0.5 -3 4.5
v 0.5 -3 4.5
v 0.5 -3 3.5
v -0.5 -3 3.5
v 0 -1.75 4
v -0.5 -3 -3.5
v 0.5 -3 -3.5
v 0.5 -3 -4.5
v -0.5 -3 -4.5
v 0 -1.75 -4
v 4.75 0 -0.75
v 4.5 -1 -0.5
v 4.5 -1 0.5
v 4.75 0 0.75
v 3.25 0 -0.75
v 3.5 -1 -0.5
v 3.5 -1 0.5
v 3.25 0 0.75
v 3.25 1 -0.75
v 4.75 1 -0.75
v 4.75 1 0.75
v 3.25 1 0.75
v 0.75 0 -4.75
v 0.5 -1 -4.5
v 0.5 -1 -3.5
v 0.75 0 -3.25
v -0.75 0 -4.75
v -0.5 -1 -4.5
v -0.5 -1 -3.5
v -0.75 0 -3.25
v -0.75 1 -4.75
v 0.75 1 -4.75
v 0.75 1 -3.25
v -0.75 1 -3.25
v 0.75 0 3.25
v 0.5 -1 3.5
v 0.5 -1 4.5
v 0.75 0 4.75
v -0.75 0 3.25
v -0.5 -1 3.5
v -0.5 -1 4.5
v -0.75 0 4.75
v -0.75 1 3.25
v 0.75 1 3.25
v 0.75 1 4.75
v -0.75 1 4.75
v -3.25 0 -0.75
v -3.5 -1 -0.5
v -3.5 -1 0.5
v -3.25 0 0.75
v -4.75 0 -0.75
v -4.5 -1 -0.5
v -4.5 -1 0.5
v -4.75 0 0.75
v -4.75 1 -0.75
v -3.25 1 -0.75
v -3.25 1 0.75
v -4.75 1 0.75
v 0.25 -1 -4.25
v 0.5 -1.75 -4.5
v 0.5 -1.75 -3.5
v 0.25 -1 -3.75
v -0.25 -1 -4.25
v -0.5 -1.75 -4.5
v -0.5 -1.75 -3.5
v -0.25 -1 -3.75
v 4.25 -1 -0.25
v 4.5 -1.75 -0.5
v 4.5 -1.75 0.5
v 4.25 -1 0.25
v 3.75 -1 -0.25
v 3.5 -1.75 -0.5
v 3.5 -1.75 0.5
v 3.75 -1 0.25
v -3.75 -1 -0.25
v -3.5 -1.75 -0.5
v -3.5 -1.75 0.5
v -3.75 -1 0.25
v -4.25 -1 -0.25
v -4.5 -1.75 -0.5
v -4.5 -1.75 0.5
v -4.25 -1 0.25
v 0.25 -1 3.75
v 0.5 -1.75 3.5
v 0.5 -1.75 4.5
v 0.25 -1 4.25
v -0.25 -1 3.75
v -0.5 -1.75 3.5
v -0.5 -1.75 4.5
v -0.25 -1 4.25
v 0.5 1 0.75
v 0.25 0 0.75
v 0.25 0 3.25
v 0.5 1 3.25
v -0.5 1 0.75
v -0.25 0 0.75
v -0.25 0 3.25
v -0.5 1 3.25
v -3.25 1 -0.5
v -3.25 0 -0.25
v -0.75 0 -0.25
v -0.75 1 -0.5
v -3.25 1 0.5
v -3.25 0 0.25
v -0.75 0 0.25
v -0.75 1 0.5
v 0.5 1 -3.25
v 0.25 0 -3.25
v 0.25 0 -0.75
v 0.5 1 -0.75
v -0.5 1 -3.25
v -0.25 0 -3.25
v -0.25 0 -0.75
v -0.5 1 -0.75
v 0.75 1 -0.5
v 0.75 0 -0.25
v 3.25 0 -0.25
v 3.25 1 -0.5
v 0.75 1 0.5
v 0.75 0 0.25
v 3.25 0 0.25
v 3.25 1 0.5

vt 0.5625 0.625
vt 0.5625 0.5625
vt 0.5 0.5625
vt 0.5 0.625
vt 0.5 0.5625
vt 0.5 0.625
vt 0.5625 0.625
vt 0.5625 0.5625
vt 0.5625 0.625
vt 0.5625 0.5625
vt 0.5 0.5625
vt 0.5 0.625
vt 0.5625 0.625
vt 0.625 0.625
vt 0.625 0.5625
vt 0.5625 0.5625
vt 0.5625 0.625
vt 0.5625 0.5625
vt 0.5 0.5625
vt 0.5 0.625
vt 0.46875 0.6875
vt 0.46875 0.5625
vt 0.375 0.5625
vt 0.375 0.6875
vt 0.46875 0.6875
vt 0.46875 0.5625
vt 0.375 0.5625
vt 0.375 0.6875
vt 0.46875 0.6875
vt 0.46875 0.5625
vt 0.375 0.5625
vt 0.375 0.6875
vt 0.46875 0.6875
vt 0.46875 0.5625
vt 0.375 0.5625
vt 0.375 0.6875
vt 0.3125 0.6875
vt 0.375 0.6875
vt 0.375 0.625
vt 0.3125 0.625
vt 0.625 0.5
vt 0.625 0.4375
vt 0.5625 0.4375
vt 0.5625 0.5
vt 0.65625 0.5
vt 0.6875 0.4375
vt 0.625 0.4375
vt 0.65625 0.5
vt 0.6875 0.4375
vt 0.625 0.4375
vt 0.65625 0.5
vt 0.6875 0.4375
vt 0.625 0.4375
vt 0.65625 0.5
vt 0.6875 0.4375
vt 0.625 0.4375
vt 0.625 0.5
vt 0.625 0.4375
vt 0.5625 0.4375
vt 0.5625 0.5
vt 0.65625 0.5
vt 0.6875 0.4375
vt 0.625 0.4375
vt 0.65625 0.5
vt 0.6875 0.4375
vt 0.625 0.4375
vt 0.65625 0.5
vt 0.6875 0.4375
vt 0.625 0.4375
vt 0.65625 0.5
vt 0.6875 0.4375
vt 0.625 0.4375
vt 0.625 0.5
vt 0.625 0.4375
vt 0.5625 0.4375
vt 0.5625 0.5
vt 0.65625 0.5
vt 0.6875 0.4375
vt 0.625 0.4375
vt 0.65625 0.5
vt 0.6875 0.4375
vt 0.625 0.4375
vt 0.65625 0.5
vt 0.6875 0.4375
vt 0.625 0.4375
vt 0.65625 0.5
vt 0.6875 0.4375
vt 0.625 0.4375
vt 0.625 0.5
vt 0.625 0.4375
vt 0.5625 0.4375
vt 0.5625 0.5
vt 0.65625 0.5
vt 0.6875 0.4375
vt 0.625 0.4375
vt 0.65625 0.5
vt 0.6875 0.4375
vt 0.625 0.4375
vt 0.65625 0.5
vt 0.6875 0.4375
vt 0.625 0.4375
vt 0.65625 0.5
vt 0.6875 0.4375
vt 0.625 0.4375
vt 0.5 0.75
vt 0.5 0.6875
vt 0.4375 0.6875
vt 0.4375 0.75
vt 0.4375 0.6875
vt 0.4375 0.75
vt 0.5 0.75
vt 0.5 0.6875
vt 0.4375 0.75
vt 0.4375 0.6875
vt 0.375 0.6875
vt 0.375 0.75
vt 0.3125 0.8125
vt 0.375 0.8125
vt 0.375 0.75
vt 0.3125 0.75
vt 0.4375 0.75
vt 0.4375 0.6875
vt 0.375 0.6875
vt 0.375 0.75
vt 0.4375 0.8125
vt 0.4375 0.75
vt 0.375 0.75
vt 0.375 0.8125
vt 0.5 0.8125
vt 0.5 0.75
vt 0.4375 0.75
vt 0.4375 0.8125
vt 0.4375 0.8125
vt 0.4375 0.75
vt 0.375 0.75
vt 0.375 0.8125
vt 0.5 0.8125
vt 0.5 0.75
vt 0.4375 0.75
vt 0.4375 0.8125
vt 0.3125 0.75
vt 0.375 0.75
vt 0.375 0.6875
vt 0.3125 0.6875
vt 0.5 0.75
vt 0.5 0.6875
vt 0.4375 0.6875
vt 0.4375 0.75
vt 0.4375 0.6875
vt 0.4375 0.75
vt 0.5 0.75
vt 0.5 0.6875
vt 0.4375 0.75
vt 0.4375 0.6875
vt 0.375 0.6875
vt 0.375 0.75
vt 0.3125 0.8125
vt 0.375 0.8125
vt 0.375 0.75
vt 0.3125 0.75
vt 0.4375 0.75
vt 0.4375 0.6875
vt 0.375 0.6875
vt 0.375 0.75
vt 0.4375 0.8125
vt 0.4375 0.75
vt 0.375 0.75
vt 0.375 0.8125
vt 0.5 0.8125
vt 0.5 0.75
vt 0.4375 0.75
vt 0.4375 0.8125
vt 0.4375 0.8125
vt 0.4375 0.75
vt 0.375 0.75
vt 0.375 0.8125
vt 0.5 0.8125
vt 0.5 0.75
vt 0.4375 0.75
vt 0.4375 0.8125
vt 0.3125 0.75
vt 0.375 0.75
vt 0.375 0.6875
vt 0.3125 0.6875
vt 0.5 0.75
vt 0.5 0.6875
vt 0.4375 0.6875
vt 0.4375 0.75
vt 0.4375 0.6875
vt 0.4375 0.75
vt 0.5 0.75
vt 0.5 0.6875
vt 0.4375 0.75
vt 0.4375 0.6875
vt 0.375 0.6875
vt 0.375 0.75
vt 0.3125 0.8125
vt 0.375 0.8125
vt 0.375 0.75
vt 0.3125 0.75
vt 0.4375 0.75
vt 0.4375 0.6875
vt 0.375 0.6875
vt 0.375 0.75
vt 0.4375 0.8125
vt 0.4375 0.75
vt 0.375 0.75
vt 0.375 0.8125
vt 0.5 0.8125
vt 0.5 0.75
vt 0.4375 0.75
vt 0.4375 0.8125
vt 0.4375 0.8125
vt 0.4375 0.75
vt 0.375 0.75
vt 0.375 0.8125
vt 0.5 0.8125
vt 0.5 0.75
vt 0.4375 0.75
vt 0.4375 0.8125
vt 0.3125 0.75
vt 0.375 0.75
vt 0.375 0.6875
vt 0.3125 0.6875
vt 0.5 0.75
vt 0.5 0.6875
vt 0.4375 0.6875
vt 0.4375 0.75
vt 0.4375 0.6875
vt 0.4375 0.75
vt 0.5 0.75
vt 0.5 0.6875
vt 0.4375 0.75
vt 0.4375 0.6875
vt 0.375 0.6875
vt 0.375 0.75
vt 0.3125 0.8125
vt 0.375 0.8125
vt 0.375 0.75
vt 0.3125 0.75
vt 0.4375 0.75
vt 0.4375 0.6875
vt 0.375 0.6875
vt 0.375 0.75
vt 0.4375 0.8125
vt 0.4375 0.75
vt 0.375 0.75
vt 0.375 0.8125
vt 0.5 0.8125
vt 0.5 0.75
vt 0.4375 0.75
vt 0.4375 0.8125
vt 0.4375 0.8125
vt 0.4375 0.75
vt 0.375 0.75
vt 0.375 0.8125
vt 0.5 0.8125
vt 0.5 0.75
vt 0.4375 0.75
vt 0.4375 0.8125
vt 0.3125 0.75
vt 0.375 0.75
vt 0.375 0.6875
vt 0.3125 0.6875
vt 0.75 0.625
vt 0.75 0.5
vt 0.625 0.5
vt 0.625 0.625
vt 0.625 0.5
vt 0.625 0.625
vt 0.75 0.625
vt 0.75 0.5
vt 0.75 0.625
vt 0.75 0.5
vt 0.625 0.5
vt 0.625 0.625
vt 0.375 1
vt 0.5 1
vt 0.5 0.875
vt 0.375 0.875
vt 0.5625 0.5625
vt 0.625 0.5625
vt 0.625 0.5
vt 0.5625 0.5
vt 0.75 0.625
vt 0.75 0.5
vt 0.625 0.5
vt 0.625 0.625
vt 0.75 0.625
vt 0.75 0.5
vt 0.625 0.5
vt 0.625 0.625
vt 0.625 0.5
vt 0.625 0.625
vt 0.75 0.625
vt 0.75 0.5
vt 0.75 0.625
vt 0.75 0.5
vt 0.625 0.5
vt 0.625 0.625
vt 0.375 1
vt 0.5 1
vt 0.5 0.875
vt 0.375 0.875
vt 0.5625 0.5625
vt 0.625 0.5625
vt 0.625 0.5
vt 0.5625 0.5
vt 0.75 0.625
vt 0.75 0.5
vt 0.625 0.5
vt 0.625 0.625
vt 0.75 0.625
vt 0.75 0.5
vt 0.625 0.5
vt 0.625 0.625
vt 0.625 0.5
vt 0.625 0.625
vt 0.75 0.625
vt 0.75 0.5
vt 0.75 0.625
vt 0.75 0.5
vt 0.625 0.5
vt 0.625 0.625
vt 0.375 1
vt 0.5 1
vt 0.5 0.875
vt 0.375 0.875
vt 0.5625 0.5625
vt 0.625 0.5625
vt 0.625 0.5
vt 0.5625 0.5
vt 0.75 0.625
vt 0.75 0.5
vt 0.625 0.5
vt 0.625 0.625
vt 0.75 0.625
vt 0.75 0.5
vt 0.625 0.5
vt 0.625 0.625
vt 0.625 0.5
vt 0.625 0.625
vt 0.75 0.625
vt 0.75 0.5
vt 0.75 0.625
vt 0.75 0.5
vt 0.625 0.5
vt 0.625 0.625
vt 0.375 1
vt 0.5 1
vt 0.5 0.875
vt 0.375 0.875
vt 0.5625 0.5625
vt 0.625 0.5625
vt 0.625 0.5
vt 0.5625 0.5
vt 0.75 0.625
vt 0.75 0.5
vt 0.625 0.5
vt 0.625 0.625
vt 0.875 0.75
vt 0.875 0.6875
vt 0.6875 0.6875
vt 0.6875 0.75
vt 0.6875 0.6875
vt 0.6875 0.75
vt 0.875 0.75
vt 0.875 0.6875
vt 0.8125 0.8125
vt 0.8125 0.75
vt 0.75 0.75
vt 0.75 0.8125
vt 0.8125 0.8125
vt 0.8125 0.75
vt 0.75 0.75
vt 0.75 0.8125
vt 0.875 0.75
vt 0.875 0.6875
vt 0.6875 0.6875
vt 0.6875 0.75
vt 0.6875 0.6875
vt 0.6875 0.75
vt 0.875 0.75
vt 0.875 0.6875
vt 0.8125 0.8125
vt 0.8125 0.75
vt 0.75 0.75
vt 0.75 0.8125
vt 0.8125 0.8125
vt 0.8125 0.75
vt 0.75 0.75
vt 0.75 0.8125
vt 0.875 0.75
vt 0.875 0.6875
vt 0.6875 0.6875
vt 0.6875 0.75
vt 0.6875 0.6875
vt 0.6875 0.75
vt 0.875 0.75
vt 0.875 0.6875
vt 0.8125 0.8125
vt 0.8125 0.75
vt 0.75 0.75
vt 0.75 0.8125
vt 0.8125 0.8125
vt 0.8125 0.75
vt 0.75 0.75
vt 0.75 0.8125
vt 0.875 0.75
vt 0.875 0.6875
vt 0.6875 0.6875
vt 0.6875 0.75
vt 0.6875 0.6875
vt 0.6875 0.75
vt 0.875 0.75
vt 0.875 0.6875
vt 0.8125 0.8125
vt 0.8125 0.75
vt 0.75 0.75
vt 0.75 0.8125
vt 0.8125 0.8125
vt 0.8125 0.75
vt 0.75 0.75
vt 0.75 0.8125

usemtl tom.mtl
s off
f 4/4/1 3/3/1 2/2/1 1/1/1 
f 7/8/2 8/7/2 5/6/2 6/5/2 
f 1/12/3 2/11/3 6/10/3 5/9/3 
f 3/16/4 7/15/4 6/14/4 2/13/4 
f 8/20/5 7/19/5 3/18/5 4/17/5 
f 10/24/6 1/23/6 5/22/6 9/21/6 
f 11/28/7 4/27/7 1/26/7 10/25/7 
f 12/32/8 8/31/8 4/30/8 11/29/8 
f 9/36/9 5/35/9 8/34/9 12/33/9 
f 12/40/10 11/39/10 10/38/10 9/37/10 
f 16/44/11 15/43/11 14/42/11 13/41/11 
f 13/47/12 14/46/12 17/45/12 
f 14/50/13 15/49/13 17/48/13 
f 15/53/14 16/52/14 17/51/14 
f 16/56/15 13/55/15 17/54/15 
f 21/60/16 20/59/16 19/58/16 18/57/16 
f 18/63/17 19/62/17 22/61/17 
f 19/66/18 20/65/18 22/64/18 
f 20/69/19 21/68/19 22/67/19 
f 21/72/20 18/71/20 22/70/20 
f 26/76/21 25/75/21 24/74/21 23/73/21 
f 23/79/22 24/78/22 27/77/22 
f 24/82/23 25/81/23 27/80/23 
f 25/85/24 26/84/24 27/83/24 
f 26/88/25 23/87/25 27/86/25 
f 31/92/26 30/91/26 29/90/26 28/89/26 
f 28/95/27 29/94/27 32/93/27 
f 29/98/28 30/97/28 32/96/28 
f 30/101/29 31/100/29 32/99/29 
f 31/104/30 28/103/30 32/102/30 
f 36/108/31 35/107/31 34/106/31 33/105/31 
f 39/112/32 40/111/32 37/110/32 38/109/32 
f 33/116/33 34/115/33 38/114/33 37/113/33 
f 35/120/34 39/119/34 38/118/34 34/117/34 
f 40/124/35 39/123/35 35/122/35 36/121/35 
f 42/128/36 33/127/36 37/126/36 41/125/36 
f 43/132/37 36/131/37 33/130/37 42/129/37 
f 44/136/38 40/135/38 36/134/38 43/133/38 
f 41/140/39 37/139/39 40/138/39 44/137/39 
f 44/144/40 43/143/40 42/142/40 41/141/40 
f 48/148/41 47/147/41 46/146/41 45/145/41 
f 51/152/42 52/151/42 49/150/42 50/149/42 
f 45/156/43 46/155/43 50/154/43 49/153/43 
f 47/160/44 51/159/44 50/158/44 46/157/44 
f 52/164/45 51/163/45 47/162/45 48/161/45 
f 54/168/46 45/167/46 49/166/46 53/165/46 
f 55/172/47 48/171/47 45/170/47 54/169/47 
f 56/176/48 52/175/48 48/174/48 55/173/48 
f 53/180/49 49/179/49 52/178/49 56/177/49 
f 56/184/50 55/183/50 54/182/50 53/181/50 
f 60/188/51 59/187/51 58/186/51 57/185/51 
f 63/192/52 64/191/52 61/190/52 62/189/52 
f 57/196/53 58/195/53 62/194/53 61/193/53 
f 59/200/54 63/199/54 62/198/54 58/197/54 
f 64/204/55 63/203/55 59/202/55 60/201/55 
f 66/208/56 57/207/56 61/206/56 65/205/56 
f 67/212/57 60/211/57 57/210/57 66/209/57 
f 68/216/58 64/215/58 60/214/58 67/213/58 
f 65/220/59 61/219/59 64/218/59 68/217/59 
f 68/224/60 67/223/60 66/222/60 65/221/60 
f 72/228/61 71/227/61 70/226/61 69/225/61 
f 75/232/62 76/231/62 73/230/62 74/229/62 
f 69/236/63 70/235/63 74/234/63 73/233/63 
f 71/240/64 75/239/64 74/238/64 70/237/64 
f 76/244/65 75/243/65 71/242/65 72/241/65 
f 78/248/66 69/247/66 73/246/66 77/245/66 
f 79/252/67 72/251/67 69/250/67 78/249/67 
f 80/256/68 76/255/68 72/254/68 79/253/68 
f 77/260/69 73/259/69 76/258/69 80/257/69 
f 80/264/70 79/263/70 78/262/70 77/261/70 
f 84/268/71 83/267/71 82/266/71 81/265/71 
f 87/272/72 88/271/72 85/270/72 86/269/72 
f 81/276/73 82/275/73 86/274/73 85/273/73 
f 88/280/74 84/279/74 81/278/74 85/277/74 
f 83/284/75 87/283/75 86/282/75 82/281/75 
f 88/288/76 87/287/76 83/286/76 84/285/76 
f 92/292/77 91/291/77 90/290/77 89/289/77 
f 95/296/78 96/295/78 93/294/78 94/293/78 
f 89/300/79 90/299/79 94/298/79 93/297/79 
f 96/304/80 92/303/80 89/302/80 93/301/80 
f 91/308/81 95/307/81 94/306/81 90/305/81 
f 96/312/82 95/311/82 91/310/82 92/309/82 
f 100/316/83 99/315/83 98/314/83 97/313/83 
f 103/320/84 104/319/84 101/318/84 102/317/84 
f 97/324/85 98/323/85 102/322/85 101/321/85 
f 104/328/86 100/327/86 97/326/86 101/325/86 
f 99/332/87 103/331/87 102/330/87 98/329/87 
f 104/336/88 103/335/88 99/334/88 100/333/88 
f 108/340/89 107/339/89 106/338/89 105/337/89 
f 111/344/90 112/343/90 109/342/90 110/341/90 
f 105/348/91 106/347/91 110/346/91 109/345/91 
f 112/352/92 108/351/92 105/350/92 109/349/92 
f 107/356/93 111/355/93 110/354/93 106/353/93 
f 112/360/94 111/359/94 107/358/94 108/357/94 
f 116/364/95 115/363/95 114/362/95 113/361/95 
f 119/368/96 120/367/96 117/366/96 118/365/96 
f 120/372/97 116/371/97 113/370/97 117/369/97 
f 115/376/98 119/375/98 118/374/98 114/373/98 
f 124/380/99 123/379/99 122/378/99 121/377/99 
f 127/384/100 128/383/100 125/382/100 126/381/100 
f 128/388/101 124/387/101 121/386/101 125/385/101 
f 123/392/102 127/391/102 126/390/102 122/389/102 
f 132/396/103 131/395/103 130/394/103 129/393/103 
f 135/400/104 136/399/104 133/398/104 134/397/104 
f 136/404/105 132/403/105 129/402/105 133/401/105 
f 131/408/106 135/407/106 134/406/106 130/405/106 
f 140/412/107 139/411/107 138/410/107 137/409/107 
f 143/416/108 144/415/108 141/414/108 142/413/108 
f 144/420/109 140/419/109 137/418/109 141/417/109 
f 139/424/110 143/423/110 142/422/110 138/421/110 

