# Pico Space Program's first stage: tank, engine bell and four fins.
# Metres, nose up, hanging BELOW the origin, which is the joint the
# two stages separate at. Draws at scale 1.0.
# Generated by tools/gen_picospace_models.py.
mtllib props.mtl
o booster
v 0.382680 -9.400000 0.923880
v 0.382680 -0.700000 0.923880
v 0.923880 -0.700000 0.382680
v 0.923880 -9.400000 0.382680
v -0.382680 -9.400000 0.923880
v -0.382680 -0.700000 0.923880
v -0.923880 -9.400000 0.382680
v -0.923880 -0.700000 0.382680
v -0.923880 -9.400000 -0.382680
v -0.923880 -0.700000 -0.382680
v -0.382680 -9.400000 -0.923880
v -0.382680 -0.700000 -0.923880
v 0.382680 -9.400000 -0.923880
v 0.382680 -0.700000 -0.923880
v 0.923880 -9.400000 -0.382680
v 0.923880 -0.700000 -0.382680
v 0.382680 0.000000 0.923880
v 0.923880 0.000000 0.382680
v -0.382680 0.000000 0.923880
v -0.923880 0.000000 0.382680
v -0.923880 0.000000 -0.382680
v -0.382680 0.000000 -0.923880
v 0.382680 0.000000 -0.923880
v 0.923880 0.000000 -0.382680
v 0.275530 -10.400000 0.665190
v 0.665190 -10.400000 0.275530
v -0.275530 -10.400000 0.665190
v -0.665190 -10.400000 0.275530
v -0.665190 -10.400000 -0.275530
v -0.275530 -10.400000 -0.665190
v 0.275530 -10.400000 -0.665190
v 0.665190 -10.400000 -0.275530
v 0.363550 -11.000000 0.877690
v 0.877690 -11.000000 0.363550
v -0.363550 -11.000000 0.877690
v -0.877690 -11.000000 0.363550
v -0.877690 -11.000000 -0.363550
v -0.363550 -11.000000 -0.877690
v 0.363550 -11.000000 -0.877690
v 0.877690 -11.000000 -0.363550
v 0.800000 -6.400000 0.130000
v 1.426000 -6.400000 0.130000
v 2.300000 -9.400000 0.130000
v 0.800000 -9.400000 0.130000
v 0.800000 -6.400000 -0.130000
v 1.426000 -6.400000 -0.130000
v 2.300000 -9.400000 -0.130000
v 0.800000 -9.400000 -0.130000
v -0.800000 -6.400000 -0.130000
v -1.426000 -6.400000 -0.130000
v -2.300000 -9.400000 -0.130000
v -0.800000 -9.400000 -0.130000
v -0.800000 -6.400000 0.130000
v -1.426000 -6.400000 0.130000
v -2.300000 -9.400000 0.130000
v -0.800000 -9.400000 0.130000
v 0.130000 -6.400000 0.800000
v 0.130000 -6.400000 1.426000
v 0.130000 -9.400000 2.300000
v 0.130000 -9.400000 0.800000
v -0.130000 -6.400000 0.800000
v -0.130000 -6.400000 1.426000
v -0.130000 -9.400000 2.300000
v -0.130000 -9.400000 0.800000
v -0.130000 -6.400000 -0.800000
v -0.130000 -6.400000 -1.426000
v -0.130000 -9.400000 -2.300000
v -0.130000 -9.400000 -0.800000
v 0.130000 -6.400000 -0.800000
v 0.130000 -6.400000 -1.426000
v 0.130000 -9.400000 -2.300000
v 0.130000 -9.400000 -0.800000
usemtl hull
f 1 2 3 4
f 5 6 2 1
f 7 8 6 5
f 9 10 8 7
f 11 12 10 9
f 13 14 12 11
f 15 16 14 13
f 4 3 16 15
usemtl stripe
f 2 17 18 3
f 6 19 17 2
f 8 20 19 6
f 10 21 20 8
f 12 22 21 10
f 14 23 22 12
f 16 24 23 14
f 3 18 24 16
f 19 19 17 18
f 20 20 19 18
f 21 21 20 18
f 22 22 21 18
f 23 23 22 18
f 24 24 23 18
usemtl engine
f 1 25 26 4
f 5 27 25 1
f 7 28 27 5
f 9 29 28 7
f 11 30 29 9
f 13 31 30 11
f 15 32 31 13
f 4 26 32 15
f 25 33 34 26
f 27 35 33 25
f 28 36 35 27
f 29 37 36 28
f 30 38 37 29
f 31 39 38 30
f 32 40 39 31
f 26 34 40 32
usemtl burn
f 33 33 35 34
f 35 35 36 34
f 36 36 37 34
f 37 37 38 34
f 38 38 39 34
f 39 39 40 34
usemtl fin
f 41 42 43 44
f 45 46 47 48
f 46 42 43 47
f 48 47 43 44
f 49 50 51 52
f 53 54 55 56
f 54 50 51 55
f 56 55 51 52
f 57 58 59 60
f 61 62 63 64
f 62 58 59 63
f 64 63 59 60
f 65 66 67 68
f 69 70 71 72
f 70 66 67 71
f 72 71 67 68
