# Pico Space Program's upper stage, which is also the lander: tank,
# nose cone and engine. Metres, nose up, standing ABOVE the origin,
# which is the joint the two stages separate at. Draws at scale 1.0.
# Generated by tools/gen_picospace_models.py.
mtllib props.mtl
o lander
v 0.306150 0.000000 0.739100
v 0.306150 2.400000 0.739100
v 0.739100 2.400000 0.306150
v 0.739100 0.000000 0.306150
v -0.306150 0.000000 0.739100
v -0.306150 2.400000 0.739100
v -0.739100 0.000000 0.306150
v -0.739100 2.400000 0.306150
v -0.739100 0.000000 -0.306150
v -0.739100 2.400000 -0.306150
v -0.306150 0.000000 -0.739100
v -0.306150 2.400000 -0.739100
v 0.306150 0.000000 -0.739100
v 0.306150 2.400000 -0.739100
v 0.739100 0.000000 -0.306150
v 0.739100 2.400000 -0.306150
v 0.306150 2.900000 0.739100
v 0.739100 2.900000 0.306150
v -0.306150 2.900000 0.739100
v -0.739100 2.900000 0.306150
v -0.739100 2.900000 -0.306150
v -0.306150 2.900000 -0.739100
v 0.306150 2.900000 -0.739100
v 0.739100 2.900000 -0.306150
v 0.306150 4.200000 0.739100
v 0.739100 4.200000 0.306150
v -0.306150 4.200000 0.739100
v -0.739100 4.200000 0.306150
v -0.739100 4.200000 -0.306150
v -0.306150 4.200000 -0.739100
v 0.306150 4.200000 -0.739100
v 0.739100 4.200000 -0.306150
v 0.000000 5.900000 0.000000
v 0.191340 0.000000 0.461940
v 0.298490 -0.950000 0.720630
v 0.720630 -0.950000 0.298490
v 0.461940 0.000000 0.191340
v -0.191340 0.000000 0.461940
v -0.298490 -0.950000 0.720630
v -0.461940 0.000000 0.191340
v -0.720630 -0.950000 0.298490
v -0.461940 0.000000 -0.191340
v -0.720630 -0.950000 -0.298490
v -0.191340 0.000000 -0.461940
v -0.298490 -0.950000 -0.720630
v 0.191340 0.000000 -0.461940
v 0.298490 -0.950000 -0.720630
v 0.461940 0.000000 -0.191340
v 0.720630 -0.950000 -0.298490
usemtl hull
f 1 2 3 4
f 5 6 2 1
f 7 8 6 5
f 9 10 8 7
f 11 12 10 9
f 13 14 12 11
f 15 16 14 13
f 4 3 16 15
usemtl band
f 2 17 18 3
f 6 19 17 2
f 8 20 19 6
f 10 21 20 8
f 12 22 21 10
f 14 23 22 12
f 16 24 23 14
f 3 18 24 16
usemtl hull
f 17 25 26 18
f 19 27 25 17
f 20 28 27 19
f 21 29 28 20
f 22 30 29 21
f 23 31 30 22
f 24 32 31 23
f 18 26 32 24
usemtl nose
f 25 33 33 26
f 27 33 33 25
f 28 33 33 27
f 29 33 33 28
f 30 33 33 29
f 31 33 33 30
f 32 33 33 31
f 26 33 33 32
usemtl engine
f 34 35 36 37
f 38 39 35 34
f 40 41 39 38
f 42 43 41 40
f 44 45 43 42
f 46 47 45 44
f 48 49 47 46
f 37 36 49 48
usemtl burn
f 35 35 39 36
f 39 39 41 36
f 41 41 43 36
f 43 43 45 36
f 45 45 47 36
f 47 47 49 36
