# Pico Space Program's landing legs, deployed once the booster is
# gone. Their own model because they reach through where the first
# stage is. The feet sit at k_gear_m below the origin, which is the
# height the sim rests the ship at. Draws at scale 1.0.
# Generated by tools/gen_picospace_models.py.
mtllib props.mtl
o legs
v 0.720000 0.300000 0.160000
v 2.100000 -5.900000 0.160000
v 2.100000 -5.400000 0.160000
v 0.720000 0.900000 0.160000
v 0.720000 0.300000 -0.160000
v 2.100000 -5.900000 -0.160000
v 2.100000 -5.400000 -0.160000
v 0.720000 0.900000 -0.160000
v 1.750000 -5.900000 0.304000
v 2.550000 -5.900000 0.304000
v 2.550000 -5.900000 -0.304000
v 1.750000 -5.900000 -0.304000
v -0.720000 0.300000 -0.160000
v -2.100000 -5.900000 -0.160000
v -2.100000 -5.400000 -0.160000
v -0.720000 0.900000 -0.160000
v -0.720000 0.300000 0.160000
v -2.100000 -5.900000 0.160000
v -2.100000 -5.400000 0.160000
v -0.720000 0.900000 0.160000
v -1.750000 -5.900000 -0.304000
v -2.550000 -5.900000 -0.304000
v -2.550000 -5.900000 0.304000
v -1.750000 -5.900000 0.304000
v 0.160000 0.300000 0.720000
v 0.160000 -5.900000 2.100000
v 0.160000 -5.400000 2.100000
v 0.160000 0.900000 0.720000
v -0.160000 0.300000 0.720000
v -0.160000 -5.900000 2.100000
v -0.160000 -5.400000 2.100000
v -0.160000 0.900000 0.720000
v 0.304000 -5.900000 1.750000
v 0.304000 -5.900000 2.550000
v -0.304000 -5.900000 2.550000
v -0.304000 -5.900000 1.750000
v -0.160000 0.300000 -0.720000
v -0.160000 -5.900000 -2.100000
v -0.160000 -5.400000 -2.100000
v -0.160000 0.900000 -0.720000
v 0.160000 0.300000 -0.720000
v 0.160000 -5.900000 -2.100000
v 0.160000 -5.400000 -2.100000
v 0.160000 0.900000 -0.720000
v -0.304000 -5.900000 -1.750000
v -0.304000 -5.900000 -2.550000
v 0.304000 -5.900000 -2.550000
v 0.304000 -5.900000 -1.750000
usemtl leg
f 1 2 3 4
f 5 6 7 8
f 7 3 4 8
f 2 6 5 1
usemtl foot
f 9 10 11 12
usemtl leg
f 13 14 15 16
f 17 18 19 20
f 19 15 16 20
f 14 18 17 13
usemtl foot
f 21 22 23 24
usemtl leg
f 25 26 27 28
f 29 30 31 32
f 31 27 28 32
f 26 30 29 25
usemtl foot
f 33 34 35 36
usemtl leg
f 37 38 39 40
f 41 42 43 44
f 43 39 40 44
f 38 42 41 37
usemtl foot
f 45 46 47 48
