# Pico Space Program's launch pad: a deck and a service tower.
# Metres, standing on y = 0, drawn at scale 1.0.
# Generated by tools/gen_picospace_models.py.
mtllib props.mtl
o pad
v 5.000000 0.000000 -5.000000
v 5.000000 1.400000 -5.000000
v -5.000000 1.400000 -5.000000
v -5.000000 0.000000 -5.000000
v -5.000000 0.000000 5.000000
v -5.000000 1.400000 5.000000
v 5.000000 1.400000 5.000000
v 5.000000 0.000000 5.000000
v 7.600000 0.000000 -0.800000
v 7.600000 16.000000 -0.800000
v 6.000000 16.000000 -0.800000
v 6.000000 0.000000 -0.800000
v 6.000000 0.000000 0.800000
v 6.000000 16.000000 0.800000
v 7.600000 16.000000 0.800000
v 7.600000 0.000000 0.800000
v 7.600000 4.000000 -1.300000
v 7.600000 4.450000 -1.300000
v 4.400000 4.450000 -1.300000
v 4.400000 4.000000 -1.300000
v 4.400000 4.000000 1.300000
v 4.400000 4.450000 1.300000
v 7.600000 4.450000 1.300000
v 7.600000 4.000000 1.300000
v 7.600000 8.000000 -1.300000
v 7.600000 8.450000 -1.300000
v 4.400000 8.450000 -1.300000
v 4.400000 8.000000 -1.300000
v 4.400000 8.000000 1.300000
v 4.400000 8.450000 1.300000
v 7.600000 8.450000 1.300000
v 7.600000 8.000000 1.300000
v 7.600000 12.000000 -1.300000
v 7.600000 12.450000 -1.300000
v 4.400000 12.450000 -1.300000
v 4.400000 12.000000 -1.300000
v 4.400000 12.000000 1.300000
v 4.400000 12.450000 1.300000
v 7.600000 12.450000 1.300000
v 7.600000 12.000000 1.300000
v 6.000000 11.600000 -0.450000
v 6.000000 12.050000 -0.450000
v 2.400000 12.050000 -0.450000
v 2.400000 11.600000 -0.450000
v 2.400000 11.600000 0.450000
v 2.400000 12.050000 0.450000
v 6.000000 12.050000 0.450000
v 6.000000 11.600000 0.450000
usemtl deck
f 1 2 3 4
f 5 6 7 8
f 4 3 6 5
f 8 7 2 1
f 2 7 6 3
usemtl steel
f 9 10 11 12
f 13 14 15 16
f 12 11 14 13
f 16 15 10 9
f 10 15 14 11
f 17 18 19 20
f 21 22 23 24
f 20 19 22 21
f 24 23 18 17
f 18 23 22 19
f 24 17 20 21
f 25 26 27 28
f 29 30 31 32
f 28 27 30 29
f 32 31 26 25
f 26 31 30 27
f 32 25 28 29
f 33 34 35 36
f 37 38 39 40
f 36 35 38 37
f 40 39 34 33
f 34 39 38 35
f 40 33 36 37
usemtl arm
f 41 42 43 44
f 45 46 47 48
f 44 43 46 45
f 48 47 42 41
f 42 47 46 43
f 48 41 44 45
