# Tom Lander's crate, mission two's load.
# 1.7 units on a side. Authored at true world units, so it draws at
# scale 1.0 like the pad does.
# Generated by tools/gen_tomlander_props.py.
mtllib props.mtl
o cargo
v 0.850000 0.000000 -0.850000
v 0.850000 1.700000 -0.850000
v -0.850000 1.700000 -0.850000
v -0.850000 0.000000 -0.850000
v -0.850000 0.000000 0.850000
v -0.850000 1.700000 0.850000
v 0.850000 1.700000 0.850000
v 0.850000 0.000000 0.850000
v 0.900000 0.620000 -0.900000
v 0.900000 0.950000 -0.900000
v -0.900000 0.950000 -0.900000
v -0.900000 0.620000 -0.900000
v -0.900000 0.620000 0.900000
v -0.900000 0.950000 0.900000
v 0.900000 0.950000 0.900000
v 0.900000 0.620000 0.900000
v 0.850000 1.800000 -0.850000
v -0.850000 1.800000 -0.850000
v -0.850000 1.800000 0.850000
v 0.850000 1.800000 0.850000
usemtl crate
f 1 2 3 4
f 5 6 7 8
f 4 3 6 5
f 8 7 2 1
f 2 7 6 3
usemtl strap
f 9 10 11 12
f 13 14 15 16
f 12 11 14 13
f 16 15 10 9
usemtl crate_top
f 2 17 18 3
f 6 19 20 7
f 3 18 19 6
f 7 20 17 2
f 17 20 19 18
