# Blender 4.4.3
# www.blender.org
mtllib tom.mtl
o tom
v 0.750000 -0.500000 -0.750000
v 0.500000 -1.250000 -0.500000
v 0.500000 -1.250000 0.500000
v 0.750000 -0.500000 0.750000
v -0.750000 -0.500000 -0.750000
v -0.500000 -1.250000 -0.500000
v -0.500000 -1.250000 0.500000
v -0.750000 -0.500000 0.750000
v -0.750000 1.250000 -0.750000
v 0.750000 1.250000 -0.750000
v 0.750000 1.250000 0.750000
v -0.750000 1.250000 0.750000
v 4.750000 -0.000000 -0.750000
v 4.500000 -1.000000 -0.500000
v 4.500000 -1.000000 0.500000
v 4.750000 0.000000 0.750000
v 3.250000 -0.000000 -0.750000
v 3.500000 -1.000000 -0.500000
v 3.500000 -1.000000 0.500000
v 3.250000 0.000000 0.750000
v 3.250000 1.000000 -0.750000
v 4.750000 1.000000 -0.750000
v 4.750000 1.000000 0.750000
v 3.250000 1.000000 0.750000
v 0.750000 -0.000000 -4.750000
v 0.500000 -1.000000 -4.500000
v 0.500000 -1.000000 -3.500000
v 0.750000 -0.000000 -3.250000
v -0.750000 -0.000000 -4.750000
v -0.500000 -1.000000 -4.500000
v -0.500000 -1.000000 -3.500000
v -0.750000 -0.000000 -3.250000
v -0.750000 1.000000 -4.750000
v 0.750000 1.000000 -4.750000
v 0.750000 1.000000 -3.250000
v -0.750000 1.000000 -3.250000
v 0.750000 0.000000 3.250000
v 0.500000 -1.000000 3.500000
v 0.500000 -1.000000 4.500000
v 0.750000 0.000000 4.750000
v -0.750000 0.000000 3.250000
v -0.500000 -1.000000 3.500000
v -0.500000 -1.000000 4.500000
v -0.750000 0.000000 4.750000
v -0.750000 1.000000 3.250000
v 0.750000 1.000000 3.250000
v 0.750000 1.000000 4.750000
v -0.750000 1.000000 4.750000
v -3.250000 -0.000000 -0.750000
v -3.500000 -1.000000 -0.500000
v -3.500000 -1.000000 0.500000
v -3.250000 0.000000 0.750000
v -4.750000 -0.000000 -0.750000
v -4.500000 -1.000000 -0.500000
v -4.500000 -1.000000 0.500000
v -4.750000 0.000000 0.750000
v -4.750000 1.000000 -0.750000
v -3.250000 1.000000 -0.750000
v -3.250000 1.000000 0.750000
v -4.750000 1.000000 0.750000
v 0.250000 -1.000000 -4.250000
v 0.500000 -1.750000 -4.500000
v 0.500000 -1.750000 -3.500000
v 0.250000 -1.000000 -3.750000
v -0.250000 -1.000000 -4.250000
v -0.500000 -1.750000 -4.500000
v -0.500000 -1.750000 -3.500000
v -0.250000 -1.000000 -3.750000
v 4.250000 -1.000000 -0.250000
v 4.500000 -1.750000 -0.500000
v 4.500000 -1.750000 0.500000
v 4.250000 -1.000000 0.250000
v 3.750000 -1.000000 -0.250000
v 3.500000 -1.750000 -0.500000
v 3.500000 -1.750000 0.500000
v 3.750000 -1.000000 0.250000
v -3.750000 -1.000000 -0.250000
v -3.500000 -1.750000 -0.500000
v -3.500000 -1.750000 0.500000
v -3.750000 -1.000000 0.250000
v -4.250000 -1.000000 -0.250000
v -4.500000 -1.750000 -0.500000
v -4.500000 -1.750000 0.500000
v -4.250000 -1.000000 0.250000
v 0.250000 -1.000000 3.750000
v 0.500000 -1.750000 3.500000
v 0.500000 -1.750000 4.500000
v 0.250000 -1.000000 4.250000
v -0.250000 -1.000000 3.750000
v -0.500000 -1.750000 3.500000
v -0.500000 -1.750000 4.500000
v -0.250000 -1.000000 4.250000
v 0.500000 1.000000 0.750000
v 0.250000 0.000000 0.750000
v 0.250000 0.000000 3.250000
v 0.500000 1.000000 3.250000
v -0.500000 1.000000 0.750000
v -0.250000 0.000000 0.750000
v -0.250000 0.000000 3.250000
v -0.500000 1.000000 3.250000
v -3.250000 1.000000 -0.500000
v -3.250000 -0.000000 -0.250000
v -0.750000 -0.000000 -0.250000
v -0.750000 1.000000 -0.500000
v -3.250000 1.000000 0.500000
v -3.250000 0.000000 0.250000
v -0.750000 0.000000 0.250000
v -0.750000 1.000000 0.500000
v 0.500000 1.000000 -3.250000
v 0.250000 -0.000000 -3.250000
v 0.250000 -0.000000 -0.750000
v 0.500000 1.000000 -0.750000
v -0.500000 1.000000 -3.250000
v -0.250000 -0.000000 -3.250000
v -0.250000 -0.000000 -0.750000
v -0.500000 1.000000 -0.750000
v 0.750000 1.000000 -0.500000
v 0.750000 -0.000000 -0.250000
v 3.250000 -0.000000 -0.250000
v 3.250000 1.000000 -0.500000
v 0.750000 1.000000 0.500000
v 0.750000 0.000000 0.250000
v 3.250000 0.000000 0.250000
v 3.250000 1.000000 0.500000
vn -0.0000 1.0000 -0.0000
vn -0.0000 -0.0000 1.0000
vn -1.0000 -0.0000 -0.0000
vn -0.0000 -0.0000 -1.0000
vn 1.0000 -0.0000 -0.0000
vn -0.9701 0.2425 -0.0000
vn 0.9701 0.2425 -0.0000
vn -0.0000 0.2425 0.9701
vn -0.0000 0.2425 -0.9701
vn -0.0000 -1.0000 -0.0000
vn -0.9487 -0.3162 -0.0000
vn 0.9487 -0.3162 -0.0000
vn -0.0000 -0.3162 0.9487
vn -0.0000 -0.3162 -0.9487
vn -0.9487 0.3162 -0.0000
vn 0.9487 0.3162 -0.0000
vn -0.0000 0.3162 0.9487
vn -0.0000 0.3162 -0.9487
s 0
usemtl c00
f 14//1 18//1 19//1 15//1
f 21//2 17//2 13//2 22//2
f 22//3 13//3 16//3 23//3
f 23//4 16//4 20//4 24//4
f 24//5 20//5 17//5 21//5
f 26//1 30//1 31//1 27//1
f 33//2 29//2 25//2 34//2
f 34//3 25//3 28//3 35//3
f 35//4 28//4 32//4 36//4
f 36//5 32//5 29//5 33//5
f 38//1 42//1 43//1 39//1
f 45//2 41//2 37//2 46//2
f 46//3 37//3 40//3 47//3
f 47//4 40//4 44//4 48//4
f 48//5 44//5 41//5 45//5
f 50//1 54//1 55//1 51//1
f 57//2 53//2 49//2 58//2
f 58//3 49//3 52//3 59//3
f 59//4 52//4 56//4 60//4
f 60//5 56//5 53//5 57//5
usemtl c01
f 2//1 6//1 7//1 3//1
f 13//6 14//6 15//6 16//6
f 18//7 17//7 20//7 19//7
f 17//8 18//8 14//8 13//8
f 16//9 15//9 19//9 20//9
f 21//10 22//10 23//10 24//10
f 25//6 26//6 27//6 28//6
f 30//7 29//7 32//7 31//7
f 29//8 30//8 26//8 25//8
f 28//9 27//9 31//9 32//9
f 33//10 34//10 35//10 36//10
f 37//6 38//6 39//6 40//6
f 42//7 41//7 44//7 43//7
f 41//8 42//8 38//8 37//8
f 40//9 39//9 43//9 44//9
f 45//10 46//10 47//10 48//10
f 49//6 50//6 51//6 52//6
f 54//7 53//7 56//7 55//7
f 53//8 54//8 50//8 49//8
f 52//9 51//9 55//9 56//9
f 57//10 58//10 59//10 60//10
usemtl c02
f 9//10 10//10 11//10 12//10
f 61//11 62//11 63//11 64//11
f 66//12 65//12 68//12 67//12
f 65//13 66//13 62//13 61//13
f 64//14 63//14 67//14 68//14
f 69//11 70//11 71//11 72//11
f 74//12 73//12 76//12 75//12
f 73//13 74//13 70//13 69//13
f 72//14 71//14 75//14 76//14
f 77//11 78//11 79//11 80//11
f 82//12 81//12 84//12 83//12
f 81//13 82//13 78//13 77//13
f 80//14 79//14 83//14 84//14
f 85//11 86//11 87//11 88//11
f 90//12 89//12 92//12 91//12
f 89//13 90//13 86//13 85//13
f 88//14 87//14 91//14 92//14
f 93//6 94//6 95//6 96//6
f 98//7 97//7 100//7 99//7
f 101//8 102//8 103//8 104//8
f 106//9 105//9 108//9 107//9
f 109//6 110//6 111//6 112//6
f 114//7 113//7 116//7 115//7
f 117//8 118//8 119//8 120//8
f 122//9 121//9 124//9 123//9
usemtl c03
f 65//10 61//10 64//10 68//10
f 62//1 66//1 67//1 63//1
f 73//10 69//10 72//10 76//10
f 70//1 74//1 75//1 71//1
f 81//10 77//10 80//10 84//10
f 78//1 82//1 83//1 79//1
f 89//10 85//10 88//10 92//10
f 86//1 90//1 91//1 87//1
f 97//10 93//10 96//10 100//10
f 94//1 98//1 99//1 95//1
f 105//10 101//10 104//10 108//10
f 102//1 106//1 107//1 103//1
f 113//10 109//10 112//10 116//10
f 110//1 114//1 115//1 111//1
f 121//10 117//10 120//10 124//10
f 118//1 122//1 123//1 119//1
usemtl c04
f 9//2 5//2 1//2 10//2
f 10//3 1//3 4//3 11//3
f 11//4 4//4 8//4 12//4
f 12//5 8//5 5//5 9//5
usemtl c05
f 1//15 2//15 3//15 4//15
f 6//16 5//16 8//16 7//16
f 5//17 6//17 2//17 1//17
f 4//18 3//18 7//18 8//18
