# A banded tower. One unit half width, 5.0 tall. The engine has no
# texture mapping, so the window
# bands are real inset faces with their own material: the detail is
# geometry, because geometry is the only kind of detail there is.
# Generated by tools/gen_tomlander_props.py.
mtllib props.mtl
o tower
v 1.000000 0.000000 -1.000000
v 1.000000 0.500000 -1.000000
v -1.000000 0.500000 -1.000000
v -1.000000 0.000000 -1.000000
v -1.000000 0.000000 1.000000
v -1.000000 0.500000 1.000000
v 1.000000 0.500000 1.000000
v 1.000000 0.000000 1.000000
v 1.000000 0.500000 -0.930000
v 1.000000 1.800000 -0.930000
v -1.000000 1.800000 -0.930000
v -1.000000 0.500000 -0.930000
v -1.000000 0.500000 0.930000
v -1.000000 1.800000 0.930000
v 1.000000 1.800000 0.930000
v 1.000000 0.500000 0.930000
v -0.930000 0.500000 -1.000000
v -0.930000 1.800000 -1.000000
v -0.930000 1.800000 1.000000
v -0.930000 0.500000 1.000000
v 0.930000 0.500000 1.000000
v 0.930000 1.800000 1.000000
v 0.930000 1.800000 -1.000000
v 0.930000 0.500000 -1.000000
v 1.000000 1.800000 -1.000000
v 1.000000 2.300000 -1.000000
v -1.000000 2.300000 -1.000000
v -1.000000 1.800000 -1.000000
v -1.000000 1.800000 1.000000
v -1.000000 2.300000 1.000000
v 1.000000 2.300000 1.000000
v 1.000000 1.800000 1.000000
v 1.000000 2.300000 -0.930000
v 1.000000 3.600000 -0.930000
v -1.000000 3.600000 -0.930000
v -1.000000 2.300000 -0.930000
v -1.000000 2.300000 0.930000
v -1.000000 3.600000 0.930000
v 1.000000 3.600000 0.930000
v 1.000000 2.300000 0.930000
v -0.930000 2.300000 -1.000000
v -0.930000 3.600000 -1.000000
v -0.930000 3.600000 1.000000
v -0.930000 2.300000 1.000000
v 0.930000 2.300000 1.000000
v 0.930000 3.600000 1.000000
v 0.930000 3.600000 -1.000000
v 0.930000 2.300000 -1.000000
v 1.000000 3.600000 -1.000000
v 1.000000 5.000000 -1.000000
v -1.000000 5.000000 -1.000000
v -1.000000 3.600000 -1.000000
v -1.000000 3.600000 1.000000
v -1.000000 5.000000 1.000000
v 1.000000 5.000000 1.000000
v 1.000000 3.600000 1.000000
usemtl concrete
f 1 2 3 4
f 5 6 7 8
f 4 3 6 5
f 8 7 2 1
usemtl window
f 9 10 11 12
f 13 14 15 16
f 17 18 19 20
f 21 22 23 24
usemtl concrete
f 25 26 27 28
f 29 30 31 32
f 28 27 30 29
f 32 31 26 25
usemtl window
f 33 34 35 36
f 37 38 39 40
f 41 42 43 44
f 45 46 47 48
usemtl concrete
f 49 50 51 52
f 53 54 55 56
f 52 51 54 53
f 56 55 50 49
usemtl roof
f 50 55 54 51
