# The bike and its rider, facing +Z, wheels on y=0.

mtllib bike.mtl

# wheels
usemtl tire
v  -0.070   0.596  -0.501
v  -0.070   0.429  -0.334
v  -0.070   0.191  -0.334
v  -0.070   0.024  -0.501
v  -0.070   0.024  -0.739
v  -0.070   0.191  -0.906
v  -0.070   0.429  -0.906
v  -0.070   0.596  -0.739
v   0.070   0.596  -0.501
v   0.070   0.429  -0.334
v   0.070   0.191  -0.334
v   0.070   0.024  -0.501
v   0.070   0.024  -0.739
v   0.070   0.191  -0.906
v   0.070   0.429  -0.906
v   0.070   0.596  -0.739
f 9 10 2 1
f 10 11 3 2
f 11 12 4 3
f 12 13 5 4
f 13 14 6 5
f 14 15 7 6
f 15 16 8 7
f 16 9 1 8
f 1 2 3 4 5 6 7 8
f 16 15 14 13 12 11 10 9
v  -0.060   0.577   0.775
v  -0.060   0.415   0.937
v  -0.060   0.185   0.937
v  -0.060   0.023   0.775
v  -0.060   0.023   0.545
v  -0.060   0.185   0.383
v  -0.060   0.415   0.383
v  -0.060   0.577   0.545
v   0.060   0.577   0.775
v   0.060   0.415   0.937
v   0.060   0.185   0.937
v   0.060   0.023   0.775
v   0.060   0.023   0.545
v   0.060   0.185   0.383
v   0.060   0.415   0.383
v   0.060   0.577   0.545
f 25 26 18 17
f 26 27 19 18
f 27 28 20 19
f 28 29 21 20
f 29 30 22 21
f 30 31 23 22
f 31 32 24 23
f 32 25 17 24
f 17 18 19 20 21 22 23 24
f 32 31 30 29 28 27 26 25
# front fork, leaning back
usemtl fork
v  -0.050   0.319   0.665
v  -0.050   0.355   0.747
v  -0.050   0.885   0.413
v  -0.050   0.921   0.495
v   0.050   0.319   0.665
v   0.050   0.355   0.747
v   0.050   0.885   0.413
v   0.050   0.921   0.495
f 35 36 34 33
f 38 40 39 37
f 34 38 37 33
f 39 40 36 35
f 37 39 35 33
f 36 40 38 34
# tank and frame
usemtl frame
v  -0.110   0.470  -0.450
v  -0.110   0.470   0.350
v  -0.110   0.730  -0.450
v  -0.110   0.730   0.350
v   0.110   0.470  -0.450
v   0.110   0.470   0.350
v   0.110   0.730  -0.450
v   0.110   0.730   0.350
f 43 44 42 41
f 46 48 47 45
f 42 46 45 41
f 47 48 44 43
f 45 47 43 41
f 44 48 46 42
v  -0.100   0.630   0.030
v  -0.100   0.630   0.330
v  -0.100   0.770   0.030
v  -0.100   0.770   0.330
v   0.100   0.630   0.030
v   0.100   0.630   0.330
v   0.100   0.770   0.030
v   0.100   0.770   0.330
f 51 52 50 49
f 54 56 55 53
f 50 54 53 49
f 55 56 52 51
f 53 55 51 49
f 52 56 54 50
# seat
usemtl seat
v  -0.120   0.710  -0.700
v  -0.120   0.710  -0.260
v  -0.120   0.810  -0.700
v  -0.120   0.810  -0.260
v   0.120   0.710  -0.700
v   0.120   0.710  -0.260
v   0.120   0.810  -0.700
v   0.120   0.810  -0.260
f 59 60 58 57
f 62 64 63 61
f 58 62 61 57
f 63 64 60 59
f 61 63 59 57
f 60 64 62 58
# exhaust, one side
usemtl chrome
v   0.105   0.330  -0.730
v   0.105   0.330  -0.110
v   0.105   0.430  -0.730
v   0.105   0.430  -0.110
v   0.195   0.330  -0.730
v   0.195   0.330  -0.110
v   0.195   0.430  -0.730
v   0.195   0.430  -0.110
f 67 68 66 65
f 70 72 71 69
f 66 70 69 65
f 71 72 68 67
f 69 71 67 65
f 68 72 70 66
# front fender and headlight
usemtl frame
v  -0.075   0.650   0.490
v  -0.075   0.650   0.870
v  -0.075   0.710   0.490
v  -0.075   0.710   0.870
v   0.075   0.650   0.490
v   0.075   0.650   0.870
v   0.075   0.710   0.490
v   0.075   0.710   0.870
f 75 76 74 73
f 78 80 79 77
f 74 78 77 73
f 79 80 76 75
f 77 79 75 73
f 76 80 78 74
usemtl light
v  -0.060   0.820   0.655
v  -0.060   0.820   0.745
v  -0.060   0.940   0.655
v  -0.060   0.940   0.745
v   0.060   0.820   0.655
v   0.060   0.820   0.745
v   0.060   0.940   0.655
v   0.060   0.940   0.745
f 83 84 82 81
f 86 88 87 85
f 82 86 85 81
f 87 88 84 83
f 85 87 83 81
f 84 88 86 82
# handlebar
usemtl fork
v  -0.230   0.955   0.430
v  -0.230   0.955   0.490
v  -0.230   1.005   0.430
v  -0.230   1.005   0.490
v   0.230   0.955   0.430
v   0.230   0.955   0.490
v   0.230   1.005   0.430
v   0.230   1.005   0.490
f 91 92 90 89
f 94 96 95 93
f 90 94 93 89
f 95 96 92 91
f 93 95 91 89
f 92 96 94 90
# rider legs, torso leaning forward, arms, helmet
usemtl suit
v  -0.140   0.800  -0.530
v  -0.140   0.800  -0.110
v  -0.140   0.960  -0.530
v  -0.140   0.960  -0.110
v   0.140   0.800  -0.530
v   0.140   0.800  -0.110
v   0.140   0.960  -0.530
v   0.140   0.960  -0.110
f 99 100 98 97
f 102 104 103 101
f 98 102 101 97
f 103 104 100 99
f 101 103 99 97
f 100 104 102 98
v  -0.130   0.888  -0.437
v  -0.130   0.953  -0.227
v  -0.130   1.327  -0.573
v  -0.130   1.392  -0.363
v   0.130   0.888  -0.437
v   0.130   0.953  -0.227
v   0.130   1.327  -0.573
v   0.130   1.392  -0.363
f 107 108 106 105
f 110 112 111 109
f 106 110 109 105
f 111 112 108 107
f 109 111 107 105
f 108 112 110 106
v   0.130   1.133  -0.204
v   0.130   0.906   0.265
v   0.130   1.214  -0.165
v   0.130   0.987   0.304
v   0.210   1.133  -0.204
v   0.210   0.906   0.265
v   0.210   1.214  -0.165
v   0.210   0.987   0.304
f 115 116 114 113
f 118 120 119 117
f 114 118 117 113
f 119 120 116 115
f 117 119 115 113
f 116 120 118 114
v  -0.210   1.133  -0.204
v  -0.210   0.906   0.265
v  -0.210   1.214  -0.165
v  -0.210   0.987   0.304
v  -0.130   1.133  -0.204
v  -0.130   0.906   0.265
v  -0.130   1.214  -0.165
v  -0.130   0.987   0.304
f 123 124 122 121
f 126 128 127 125
f 122 126 125 121
f 127 128 124 123
f 125 127 123 121
f 124 128 126 122
usemtl helmet
v  -0.110   1.350  -0.390
v  -0.110   1.350  -0.130
v  -0.110   1.570  -0.390
v  -0.110   1.570  -0.130
v   0.110   1.350  -0.390
v   0.110   1.350  -0.130
v   0.110   1.570  -0.390
v   0.110   1.570  -0.130
f 131 132 130 129
f 134 136 135 133
f 130 134 133 129
f 135 136 132 131
f 133 135 131 129
f 132 136 134 130
usemtl visor
v  -0.090   1.410  -0.140
v  -0.090   1.410  -0.100
v  -0.090   1.510  -0.140
v  -0.090   1.510  -0.100
v   0.090   1.410  -0.140
v   0.090   1.410  -0.100
v   0.090   1.510  -0.140
v   0.090   1.510  -0.100
f 139 140 138 137
f 142 144 143 141
f 138 142 141 137
f 143 144 140 139
f 141 143 139 137
f 140 144 142 138
