# A saguaro, base at y=0.

mtllib cactus.mtl

# trunk
usemtl saguaro
v   0.185   0.000   0.077
v   0.077   0.000   0.185
v  -0.077   0.000   0.185
v  -0.185   0.000   0.077
v  -0.185   0.000  -0.077
v  -0.077   0.000  -0.185
v   0.077   0.000  -0.185
v   0.185   0.000  -0.077
v   0.185   2.050   0.077
v   0.077   2.050   0.185
v  -0.077   2.050   0.185
v  -0.185   2.050   0.077
v  -0.185   2.050  -0.077
v  -0.077   2.050  -0.185
v   0.077   2.050  -0.185
v   0.185   2.050  -0.077
f 1 2 10 9
f 2 3 11 10
f 3 4 12 11
f 4 5 13 12
f 5 6 14 13
f 6 7 15 14
f 7 8 16 15
f 8 1 9 16
f 9 10 11 12 13 14 15 16
# left arm: out then up
usemtl limb
v  -0.550   0.995  -0.085
v  -0.550   0.995   0.085
v  -0.550   1.165  -0.085
v  -0.550   1.165   0.085
v  -0.130   0.995  -0.085
v  -0.130   0.995   0.085
v  -0.130   1.165  -0.085
v  -0.130   1.165   0.085
f 19 20 18 17
f 22 24 23 21
f 18 22 21 17
f 23 24 20 19
f 21 23 19 17
f 20 24 22 18
v  -0.387   0.980   0.065
v  -0.500   0.980   0.130
v  -0.613   0.980   0.065
v  -0.613   0.980  -0.065
v  -0.500   0.980  -0.130
v  -0.387   0.980  -0.065
v  -0.387   1.750   0.065
v  -0.500   1.750   0.130
v  -0.613   1.750   0.065
v  -0.613   1.750  -0.065
v  -0.500   1.750  -0.130
v  -0.387   1.750  -0.065
f 25 26 32 31
f 26 27 33 32
f 27 28 34 33
f 28 29 35 34
f 29 30 36 35
f 30 25 31 36
f 31 32 33 34 35 36
# right arm, lower
v   0.120   0.640  -0.080
v   0.120   0.640   0.080
v   0.120   0.800  -0.080
v   0.120   0.800   0.080
v   0.480   0.640  -0.080
v   0.480   0.640   0.080
v   0.480   0.800  -0.080
v   0.480   0.800   0.080
f 39 40 38 37
f 42 44 43 41
f 38 42 41 37
f 43 44 40 39
f 41 43 39 37
f 40 44 42 38
v   0.544   0.620   0.060
v   0.440   0.620   0.120
v   0.336   0.620   0.060
v   0.336   0.620  -0.060
v   0.440   0.620  -0.120
v   0.544   0.620  -0.060
v   0.544   1.250   0.060
v   0.440   1.250   0.120
v   0.336   1.250   0.060
v   0.336   1.250  -0.060
v   0.440   1.250  -0.120
v   0.544   1.250  -0.060
f 45 46 52 51
f 46 47 53 52
f 47 48 54 53
f 48 49 55 54
f 49 50 56 55
f 50 45 51 56
f 51 52 53 54 55 56
