# Guardrail tile, 2 m long along Z, base at y=0.

mtllib rail.mtl

# one 2 m guardrail tile along Z; tiles butt end to end
usemtl post
v  -0.040   0.000  -0.540
v  -0.040   0.000  -0.460
v  -0.040   0.560  -0.540
v  -0.040   0.560  -0.460
v   0.040   0.000  -0.540
v   0.040   0.000  -0.460
v   0.040   0.560  -0.540
v   0.040   0.560  -0.460
f 3 4 2 1
f 6 8 7 5
f 2 6 5 1
f 7 8 4 3
f 5 7 3 1
f 4 8 6 2
v  -0.040   0.000   0.460
v  -0.040   0.000   0.540
v  -0.040   0.560   0.460
v  -0.040   0.560   0.540
v   0.040   0.000   0.460
v   0.040   0.000   0.540
v   0.040   0.560   0.460
v   0.040   0.560   0.540
f 11 12 10 9
f 14 16 15 13
f 10 14 13 9
f 15 16 12 11
f 13 15 11 9
f 12 16 14 10
usemtl beam
v  -0.025   0.420  -1.000
v  -0.025   0.420   1.000
v  -0.025   0.620  -1.000
v  -0.025   0.620   1.000
v   0.025   0.420  -1.000
v   0.025   0.420   1.000
v   0.025   0.620  -1.000
v   0.025   0.620   1.000
f 19 20 18 17
f 22 24 23 21
f 18 22 21 17
f 23 24 20 19
f 21 23 19 17
f 20 24 22 18
