# A small desert boulder, base at y=0. Twisted hexagonal frustum, narrower
# at the top than the base, so it reads as a rock from any angle instead of
# a box or a flat patch of grit.

mtllib rock.mtl

usemtl rock
v   0.50   0.00   0.10
v   0.28   0.00   0.48
v  -0.30   0.00   0.42
v  -0.52   0.00  -0.08
v  -0.22   0.00  -0.46
v   0.34   0.00  -0.40
v   0.16   0.62  -0.02
v   0.02   0.66   0.24
v  -0.22   0.58   0.14
v  -0.26   0.63  -0.10
v  -0.06   0.55  -0.24
v   0.18   0.60  -0.16
f 1 2 8 7
f 2 3 9 8
f 3 4 10 9
f 4 5 11 10
f 5 6 12 11
f 6 1 7 12
f 7 8 9 10 11 12
