# EMBERKIT: the ember starter, and the mesh FLARETTE and FLICKER tint.
# Y is up, +Z is the front, one world unit is one map tile. The lowest vertex
# sits on y = 0 and the model is centred on x = 0 and z = 0, so the game places
# it by its feet.
#
# Faces are wound so that (c - a) x (b - a) points out of the solid, which is
# what tools/obj2cpp.py bakes as the face normal. Get it backwards and the
# model still draws, it just goes flat ambient dark.
#
# Eyes are not modelled. They are two depth tested dots in the 2D layer, a
# pixel each instead of eight triangles.
#
# About 1.28 units tall, 76 triangles.
# The silhouette is the two upright ears and the fat swept tail. Both
# are bigger than a fox's really are, because at thirty screen pixels
# a correctly proportioned ear is two pixels and reads as nothing.

mtllib emberkit.mtl

# body, 24 triangles
v 0.000 0.780 -0.020
v 0.294 0.630 -0.020
v 0.147 0.630 0.295
v -0.147 0.630 0.295
v -0.294 0.630 -0.020
v -0.147 0.630 -0.335
v 0.147 0.630 -0.335
v 0.294 0.330 -0.020
v 0.147 0.330 0.295
v -0.147 0.330 0.295
v -0.294 0.330 -0.020
v -0.147 0.330 -0.335
v 0.147 0.330 -0.335
v 0.000 0.180 -0.020
usemtl emberkit_body
f 1 2 3
f 1 3 4
f 1 4 5
f 1 5 6
f 1 6 7
f 1 7 2
f 2 8 9 3
usemtl emberkit_belly
f 3 9 10 4
usemtl emberkit_body
f 4 10 11 5
f 5 11 12 6
f 6 12 13 7
f 7 13 8 2
usemtl emberkit_belly
f 8 14 9
f 9 14 10
f 10 14 11
f 11 14 12
f 12 14 13
f 13 14 8

# head, 12 triangles
v 0.000 1.120 0.240
v 0.260 0.920 0.240
v 0.130 0.920 0.457
v -0.130 0.920 0.457
v -0.260 0.920 0.240
v -0.130 0.920 0.023
v 0.130 0.920 0.023
v 0.000 0.720 0.240
usemtl emberkit_body
f 15 16 17
f 15 17 18
f 15 18 19
f 15 19 20
f 15 20 21
f 15 21 16
usemtl emberkit_belly
f 16 22 17
f 17 22 18
f 18 22 19
f 19 22 20
f 20 22 21
f 21 22 16

# snout, 4 triangles
v 0.000 0.850 0.620
v 0.100 0.850 0.360
v 0.000 0.765 0.360
v -0.100 0.850 0.360
v 0.000 0.935 0.360
usemtl emberkit_snout
f 23 24 25
f 23 25 26
f 23 26 27
f 23 27 24

# ear, 4 triangles
v 0.244 1.279 0.042
v 0.226 0.996 0.100
v 0.159 1.031 0.154
v 0.084 1.044 0.100
v 0.151 1.009 0.046
usemtl emberkit_ear
f 28 29 30
f 28 30 31
f 28 31 32
f 28 32 29

# ear, 4 triangles
v -0.244 1.279 0.042
v -0.084 1.044 0.100
v -0.159 1.031 0.154
v -0.226 0.996 0.100
v -0.151 1.009 0.046
usemtl emberkit_ear
f 33 34 35
f 33 35 36
f 33 36 37
f 33 37 34

# tail, 12 triangles
v 0.000 0.813 -0.648
v 0.190 0.560 -0.420
v 0.095 0.670 -0.298
v -0.095 0.670 -0.298
v -0.190 0.560 -0.420
v -0.095 0.450 -0.542
v 0.095 0.450 -0.542
v 0.000 0.307 -0.192
usemtl emberkit_tip
f 38 39 40
f 38 40 41
f 38 41 42
f 38 42 43
f 38 43 44
f 38 44 39
usemtl emberkit_tail
f 39 45 40
f 40 45 41
f 41 45 42
f 42 45 43
f 43 45 44
f 44 45 39

# leg, 4 triangles
v 0.290 0.340 0.275
v 0.140 0.340 0.275
v 0.140 0.340 0.125
v 0.290 0.340 0.125
v 0.215 0.000 0.200
usemtl emberkit_leg
f 46 50 47
f 47 50 48
f 48 50 49
f 49 50 46

# leg, 4 triangles
v -0.140 0.340 0.275
v -0.290 0.340 0.275
v -0.290 0.340 0.125
v -0.140 0.340 0.125
v -0.215 0.000 0.200
usemtl emberkit_leg
f 51 55 52
f 52 55 53
f 53 55 54
f 54 55 51

# leg, 4 triangles
v 0.270 0.340 -0.165
v 0.120 0.340 -0.165
v 0.120 0.340 -0.315
v 0.270 0.340 -0.315
v 0.195 0.000 -0.240
usemtl emberkit_leg
f 56 60 57
f 57 60 58
f 58 60 59
f 59 60 56

# leg, 4 triangles
v -0.120 0.340 -0.165
v -0.270 0.340 -0.165
v -0.270 0.340 -0.315
v -0.120 0.340 -0.315
v -0.195 0.000 -0.240
usemtl emberkit_leg
f 61 65 62
f 62 65 63
f 63 65 64
f 64 65 61
