# MOSSLING: the leaf starter, and the mesh BRAMBLIN and NIBBLE tint.
# Y is up, +Z is the front, one world unit is one map tile. The lowest vertex
# sits on y = 0 and the model is centred on x = 0 and z = 0, so the game places
# it by its feet.
#
# Faces are wound so that (c - a) x (b - a) points out of the solid, which is
# what tools/obj2cpp.py bakes as the face normal. Get it backwards and the
# model still draws, it just goes flat ambient dark.
#
# Eyes are not modelled. They are two depth tested dots in the 2D layer, a
# pixel each instead of eight triangles.
#
# About 1.15 units tall, 72 triangles.
# A round body under a three leaf sprout that sweeps back over its own
# shoulders. Stacking the leaves straight up the axis instead made a
# cone on a cone on a cone, and it read as a small pine tree.

mtllib mossling.mtl

# body, 24 triangles
v 0.000 0.680 -0.020
v 0.294 0.540 -0.020
v 0.147 0.540 0.243
v -0.147 0.540 0.243
v -0.294 0.540 -0.020
v -0.147 0.540 -0.282
v 0.147 0.540 -0.282
v 0.294 0.260 -0.020
v 0.147 0.260 0.243
v -0.147 0.260 0.243
v -0.294 0.260 -0.020
v -0.147 0.260 -0.282
v 0.147 0.260 -0.282
v 0.000 0.120 -0.020
usemtl mossling_body
f 1 2 3
f 1 3 4
f 1 4 5
f 1 5 6
f 1 6 7
f 1 7 2
f 2 8 9 3
usemtl mossling_belly
f 3 9 10 4
usemtl mossling_body
f 4 10 11 5
f 5 11 12 6
f 6 12 13 7
f 7 13 8 2
usemtl mossling_belly
f 8 14 9
f 9 14 10
f 10 14 11
f 11 14 12
f 12 14 13
f 13 14 8

# head, 12 triangles
v 0.000 0.970 0.160
v 0.260 0.780 0.160
v 0.130 0.780 0.377
v -0.130 0.780 0.377
v -0.260 0.780 0.160
v -0.130 0.780 -0.057
v 0.130 0.780 -0.057
v 0.000 0.590 0.160
usemtl mossling_body
f 15 16 17
f 15 17 18
f 15 18 19
f 15 19 20
f 15 20 21
f 15 21 16
usemtl mossling_belly
f 16 22 17
f 17 22 18
f 18 22 19
f 19 22 20
f 20 22 21
f 21 22 16

# crown leaf, 8 triangles
v 0.000 1.153 -0.255
v 0.200 0.980 -0.120
v 0.000 0.994 -0.103
v -0.200 0.980 -0.120
v 0.000 0.966 -0.137
v 0.000 0.807 0.015
usemtl mossling_leaf
f 23 24 25
f 23 25 26
f 23 26 27
f 23 27 24
usemtl mossling_leaf2
f 24 28 25
f 25 28 26
f 26 28 27
f 27 28 24

# side leaf, 4 triangles
v 0.291 1.000 -0.232
v 0.140 0.771 -0.067
v 0.114 0.872 -0.025
v 0.060 0.969 -0.013
v 0.086 0.868 -0.055
usemtl mossling_leaf2
f 29 30 31
f 29 31 32
f 29 32 33
f 29 33 30

# side leaf, 4 triangles
v -0.291 1.000 -0.232
v -0.060 0.969 -0.013
v -0.114 0.872 -0.025
v -0.140 0.771 -0.067
v -0.086 0.868 -0.055
usemtl mossling_leaf2
f 34 35 36
f 34 36 37
f 34 37 38
f 34 38 35

# tail, 4 triangles
v 0.000 0.562 -0.526
v 0.070 0.480 -0.300
v 0.000 0.546 -0.276
v -0.070 0.480 -0.300
v 0.000 0.414 -0.324
usemtl mossling_stem
f 39 40 41
f 39 41 42
f 39 42 43
f 39 43 40

# leg, 4 triangles
v 0.285 0.280 0.265
v 0.135 0.280 0.265
v 0.135 0.280 0.115
v 0.285 0.280 0.115
v 0.210 0.000 0.190
usemtl mossling_leg
f 44 48 45
f 45 48 46
f 46 48 47
f 47 48 44

# leg, 4 triangles
v -0.135 0.280 0.265
v -0.285 0.280 0.265
v -0.285 0.280 0.115
v -0.135 0.280 0.115
v -0.210 0.000 0.190
usemtl mossling_leg
f 49 53 50
f 50 53 51
f 51 53 52
f 52 53 49

# leg, 4 triangles
v 0.265 0.280 -0.145
v 0.115 0.280 -0.145
v 0.115 0.280 -0.295
v 0.265 0.280 -0.295
v 0.190 0.000 -0.220
usemtl mossling_leg
f 54 58 55
f 55 58 56
f 56 58 57
f 57 58 54

# leg, 4 triangles
v -0.115 0.280 -0.145
v -0.265 0.280 -0.145
v -0.265 0.280 -0.295
v -0.115 0.280 -0.295
v -0.190 0.000 -0.220
usemtl mossling_leg
f 59 63 60
f 60 63 61
f 61 63 62
f 62 63 59
