# MOTHLET: built the way the design mockup builds it, from
# UV blobs with box legs, a tail and cube eyes.
#
# Y is up, +Z is the front, one world unit is one map tile. The lowest
# vertex sits on y = 0 and the model is centred on x = 0 and z = 0, so
# the game places it by its feet.
#
# Faces are wound so that (c - a) x (b - a) points out of the solid, which
# is what tools/obj2cpp.py bakes as the face normal. The mockup's own
# winding is the opposite convention, so every face here is reversed from
# the JavaScript it was ported from.
#
# Two pairs of flat wings and a pair of feelers.
# About 1.60 units tall, 232 triangles.

mtllib mothlet.mtl

v 0.0000 0.9800 0.0000
v 0.0000 0.9800 0.0000
v 0.0000 0.9800 0.0000
v 0.0000 0.9800 0.0000
v 0.0000 0.9800 0.0000
v 0.0000 0.9800 0.0000
v 0.0000 0.9800 0.0000
v 0.0000 0.9800 0.0000
v 0.2469 0.8921 0.0000
v 0.1746 0.8921 0.1829
v 0.0000 0.8921 0.2586
v -0.1746 0.8921 0.1829
v -0.2469 0.8921 0.0000
v -0.1746 0.8921 -0.1829
v -0.0000 0.8921 -0.2586
v 0.1746 0.8921 -0.1829
v 0.3994 0.6621 0.0000
v 0.2824 0.6621 0.2959
v 0.0000 0.6621 0.4185
v -0.2824 0.6621 0.2959
v -0.3994 0.6621 0.0000
v -0.2824 0.6621 -0.2959
v -0.0000 0.6621 -0.4185
v 0.2824 0.6621 -0.2959
v 0.3994 0.3779 0.0000
v 0.2824 0.3779 0.2959
v 0.0000 0.3779 0.4185
v -0.2824 0.3779 0.2959
v -0.3994 0.3779 0.0000
v -0.2824 0.3779 -0.2959
v -0.0000 0.3779 -0.4185
v 0.2824 0.3779 -0.2959
v 0.2469 0.1479 0.0000
v 0.1746 0.1479 0.1829
v 0.0000 0.1479 0.2586
v -0.1746 0.1479 0.1829
v -0.2469 0.1479 0.0000
v -0.1746 0.1479 -0.1829
v -0.0000 0.1479 -0.2586
v 0.1746 0.1479 -0.1829
v 0.0000 0.0600 0.0000
v 0.0000 0.0600 0.0000
v 0.0000 0.0600 0.0000
v -0.0000 0.0600 0.0000
v -0.0000 0.0600 0.0000
v -0.0000 0.0600 -0.0000
v -0.0000 0.0600 -0.0000
v 0.0000 0.0600 -0.0000
v 0.0000 1.3800 0.2000
v 0.0000 1.3800 0.2000
v 0.0000 1.3800 0.2000
v 0.0000 1.3800 0.2000
v 0.0000 1.3800 0.2000
v 0.0000 1.3800 0.2000
v 0.0000 1.3800 0.2000
v 0.2404 1.2863 0.2000
v 0.1499 1.2863 0.3880
v -0.0535 1.2863 0.4344
v -0.2166 1.2863 0.3043
v -0.2166 1.2863 0.0957
v -0.0535 1.2863 -0.0344
v 0.1499 1.2863 0.0120
v 0.3400 1.0600 0.2000
v 0.2120 1.0600 0.4658
v -0.0757 1.0600 0.5315
v -0.3063 1.0600 0.3475
v -0.3063 1.0600 0.0525
v -0.0757 1.0600 -0.1315
v 0.2120 1.0600 -0.0658
v 0.2404 0.8337 0.2000
v 0.1499 0.8337 0.3880
v -0.0535 0.8337 0.4344
v -0.2166 0.8337 0.3043
v -0.2166 0.8337 0.0957
v -0.0535 0.8337 -0.0344
v 0.1499 0.8337 0.0120
v 0.0000 0.7400 0.2000
v 0.0000 0.7400 0.2000
v -0.0000 0.7400 0.2000
v -0.0000 0.7400 0.2000
v -0.0000 0.7400 0.2000
v -0.0000 0.7400 0.2000
v 0.0000 0.7400 0.2000
v -0.8300 0.6100 -0.1900
v -0.2100 0.6100 -0.1900
v -0.2100 1.1100 -0.1900
v -0.8300 1.1100 -0.1900
v -0.8300 0.6100 -0.1300
v -0.2100 0.6100 -0.1300
v -0.2100 1.1100 -0.1300
v -0.8300 1.1100 -0.1300
v -0.6600 0.3300 -0.2900
v -0.2200 0.3300 -0.2900
v -0.2200 0.6700 -0.2900
v -0.6600 0.6700 -0.2900
v -0.6600 0.3300 -0.2300
v -0.2200 0.3300 -0.2300
v -0.2200 0.6700 -0.2300
v -0.6600 0.6700 -0.2300
v -0.1400 1.6000 0.1600
v -0.0800 1.3000 0.1600
v -0.1700 1.3000 0.2120
v -0.1700 1.3000 0.1080
v 0.2100 0.6100 -0.1900
v 0.8300 0.6100 -0.1900
v 0.8300 1.1100 -0.1900
v 0.2100 1.1100 -0.1900
v 0.2100 0.6100 -0.1300
v 0.8300 0.6100 -0.1300
v 0.8300 1.1100 -0.1300
v 0.2100 1.1100 -0.1300
v 0.2200 0.3300 -0.2900
v 0.6600 0.3300 -0.2900
v 0.6600 0.6700 -0.2900
v 0.2200 0.6700 -0.2900
v 0.2200 0.3300 -0.2300
v 0.6600 0.3300 -0.2300
v 0.6600 0.6700 -0.2300
v 0.2200 0.6700 -0.2300
v 0.1400 1.6000 0.1600
v 0.2000 1.3000 0.1600
v 0.1100 1.3000 0.2120
v 0.1100 1.3000 0.1080
v -0.2900 0.0000 0.1300
v -0.1500 0.0000 0.1300
v -0.1500 0.2200 0.1300
v -0.2900 0.2200 0.1300
v -0.2900 0.0000 0.2700
v -0.1500 0.0000 0.2700
v -0.1500 0.2200 0.2700
v -0.2900 0.2200 0.2700
v 0.1500 0.0000 0.1300
v 0.2900 0.0000 0.1300
v 0.2900 0.2200 0.1300
v 0.1500 0.2200 0.1300
v 0.1500 0.0000 0.2700
v 0.2900 0.0000 0.2700
v 0.2900 0.2200 0.2700
v 0.1500 0.2200 0.2700
v -0.2746 0.0000 -0.2900
v -0.1346 0.0000 -0.2900
v -0.1346 0.2200 -0.2900
v -0.2746 0.2200 -0.2900
v -0.2746 0.0000 -0.1500
v -0.1346 0.0000 -0.1500
v -0.1346 0.2200 -0.1500
v -0.2746 0.2200 -0.1500
v 0.1346 0.0000 -0.2900
v 0.2746 0.0000 -0.2900
v 0.2746 0.2200 -0.2900
v 0.1346 0.2200 -0.2900
v 0.1346 0.0000 -0.1500
v 0.2746 0.0000 -0.1500
v 0.2746 0.2200 -0.1500
v 0.1346 0.2200 -0.1500
v -0.1850 1.0750 0.4350
v -0.0950 1.0750 0.4350
v -0.0950 1.1650 0.4350
v -0.1850 1.1650 0.4350
v -0.1850 1.0750 0.5250
v -0.0950 1.0750 0.5250
v -0.0950 1.1650 0.5250
v -0.1850 1.1650 0.5250
v 0.0950 1.0750 0.4350
v 0.1850 1.0750 0.4350
v 0.1850 1.1650 0.4350
v 0.0950 1.1650 0.4350
v 0.0950 1.0750 0.5250
v 0.1850 1.0750 0.5250
v 0.1850 1.1650 0.5250
v 0.0950 1.1650 0.5250

usemtl cAA88CC
f 1 9 10
f 2 10 11
f 3 11 12
f 4 12 13
f 5 13 14
f 6 14 15
f 7 15 16
f 8 16 9
f 9 18 10
f 9 17 18
f 10 19 11
f 10 18 19
f 11 20 12
f 11 19 20
f 12 21 13
f 12 20 21
f 13 22 14
f 13 21 22
f 14 23 15
f 14 22 23
f 15 24 16
f 15 23 24
f 16 17 9
f 16 24 17
f 17 26 18
f 17 25 26
f 18 27 19
f 18 26 27
f 19 28 20
f 19 27 28
f 20 29 21
f 20 28 29
f 21 30 22
f 21 29 30
f 22 31 23
f 22 30 31
f 23 32 24
f 23 31 32
f 24 25 17
f 24 32 25

usemtl cCCAADD
f 25 34 26
f 25 33 34
f 26 35 27
f 26 34 35
f 27 36 28
f 27 35 36
f 28 37 29
f 28 36 37
f 29 38 30
f 29 37 38
f 30 39 31
f 30 38 39
f 31 40 32
f 31 39 40
f 32 33 25
f 32 40 33
f 92 93 94
f 92 94 95
f 97 94 98
f 97 93 94
f 96 98 99
f 96 97 98
f 92 99 96
f 92 95 99
f 92 97 93
f 92 96 97
f 112 113 114
f 112 114 115
f 117 114 118
f 117 113 114
f 116 118 119
f 116 117 118
f 112 119 116
f 112 115 119
f 112 117 113
f 112 116 117

usemtl cDDCCEE
f 33 42 34
f 34 43 35
f 35 44 36
f 36 45 37
f 37 46 38
f 38 47 39
f 39 48 40
f 40 41 33
f 95 98 99
f 95 94 98
f 115 118 119
f 115 114 118

usemtl cBB99DD
f 49 56 57
f 50 57 58
f 51 58 59
f 52 59 60
f 53 60 61
f 54 61 62
f 55 62 56
f 56 64 57
f 56 63 64
f 57 65 58
f 57 64 65
f 58 66 59
f 58 65 66
f 59 67 60
f 59 66 67
f 60 68 61
f 60 67 68
f 61 69 62
f 61 68 69
f 62 63 56
f 62 69 63

usemtl cCCAAEE
f 63 71 64
f 63 70 71
f 64 72 65
f 64 71 72
f 65 73 66
f 65 72 73
f 66 74 67
f 66 73 74
f 67 75 68
f 67 74 75
f 68 76 69
f 68 75 76
f 69 70 63
f 69 76 70

usemtl cDDCCFF
f 70 78 71
f 71 79 72
f 72 80 73
f 73 81 74
f 74 82 75
f 75 83 76
f 76 77 70

usemtl cDDBBEE
f 84 85 86
f 84 86 87
f 89 86 90
f 89 85 86
f 88 90 91
f 88 89 90
f 84 91 88
f 84 87 91
f 84 89 85
f 84 88 89
f 104 105 106
f 104 106 107
f 109 106 110
f 109 105 106
f 108 110 111
f 108 109 110
f 104 111 108
f 104 107 111
f 104 109 105
f 104 108 109

usemtl cEEDDFF
f 87 90 91
f 87 86 90
f 107 110 111
f 107 106 110

usemtl c9977BB
f 100 101 102
f 120 121 122

usemtl c775588
f 100 102 103
f 100 103 101
f 120 122 123
f 120 123 121

usemtl c8866AA
f 124 125 126
f 124 126 127
f 129 126 130
f 129 125 126
f 128 130 131
f 128 129 130
f 124 131 128
f 124 127 131
f 127 130 131
f 127 126 130
f 124 129 125
f 124 128 129
f 132 133 134
f 132 134 135
f 137 134 138
f 137 133 134
f 136 138 139
f 136 137 138
f 132 139 136
f 132 135 139
f 135 138 139
f 135 134 138
f 132 137 133
f 132 136 137
f 140 141 142
f 140 142 143
f 145 142 146
f 145 141 142
f 144 146 147
f 144 145 146
f 140 147 144
f 140 143 147
f 143 146 147
f 143 142 146
f 140 145 141
f 140 144 145
f 148 149 150
f 148 150 151
f 153 150 154
f 153 149 150
f 152 154 155
f 152 153 154
f 148 155 152
f 148 151 155
f 151 154 155
f 151 150 154
f 148 153 149
f 148 152 153

usemtl c111122
f 156 157 158
f 156 158 159
f 161 158 162
f 161 157 158
f 160 162 163
f 160 161 162
f 156 163 160
f 156 159 163
f 159 162 163
f 159 158 162
f 156 161 157
f 156 160 161
f 164 165 166
f 164 166 167
f 169 166 170
f 169 165 166
f 168 170 171
f 168 169 170
f 164 171 168
f 164 167 171
f 167 170 171
f 167 166 170
f 164 169 165
f 164 168 169
