# PEBBLIN: built the way the design mockup builds it, from
# UV blobs with box legs, a tail and cube eyes.
#
# Y is up, +Z is the front, one world unit is one map tile. The lowest
# vertex sits on y = 0 and the model is centred on x = 0 and z = 0, so
# the game places it by its feet.
#
# Faces are wound so that (c - a) x (b - a) points out of the solid, which
# is what tools/obj2cpp.py bakes as the face normal. The mockup's own
# winding is the opposite convention, so every face here is reversed from
# the JavaScript it was ported from.
#
# Broad and low, with slab shoulders and a boulder back.
# About 1.44 units tall, 207 triangles.

mtllib pebblin.mtl

v 0.0000 1.0200 0.0000
v 0.0000 1.0200 0.0000
v 0.0000 1.0200 0.0000
v 0.0000 1.0200 0.0000
v 0.0000 1.0200 0.0000
v 0.0000 1.0200 0.0000
v 0.0000 1.0200 0.0000
v 0.0000 1.0200 0.0000
v 0.4350 0.9207 0.0000
v 0.3076 0.9207 0.2909
v 0.0000 0.9207 0.4114
v -0.3076 0.9207 0.2909
v -0.4350 0.9207 0.0000
v -0.3076 0.9207 -0.2909
v -0.0000 0.9207 -0.4114
v 0.3076 0.9207 -0.2909
v 0.7038 0.6607 0.0000
v 0.4976 0.6607 0.4707
v 0.0000 0.6607 0.6657
v -0.4976 0.6607 0.4707
v -0.7038 0.6607 0.0000
v -0.4976 0.6607 -0.4707
v -0.0000 0.6607 -0.6657
v 0.4976 0.6607 -0.4707
v 0.7038 0.3393 0.0000
v 0.4976 0.3393 0.4707
v 0.0000 0.3393 0.6657
v -0.4976 0.3393 0.4707
v -0.7038 0.3393 0.0000
v -0.4976 0.3393 -0.4707
v -0.0000 0.3393 -0.6657
v 0.4976 0.3393 -0.4707
v 0.4350 0.0793 0.0000
v 0.3076 0.0793 0.2909
v 0.0000 0.0793 0.4114
v -0.3076 0.0793 0.2909
v -0.4350 0.0793 0.0000
v -0.3076 0.0793 -0.2909
v -0.0000 0.0793 -0.4114
v 0.3076 0.0793 -0.2909
v 0.0000 -0.0200 0.0000
v 0.0000 -0.0200 0.0000
v 0.0000 -0.0200 0.0000
v -0.0000 -0.0200 0.0000
v -0.0000 -0.0200 0.0000
v -0.0000 -0.0200 -0.0000
v -0.0000 -0.0200 -0.0000
v 0.0000 -0.0200 -0.0000
v 0.0000 1.4400 0.2600
v 0.0000 1.4400 0.2600
v 0.0000 1.4400 0.2600
v 0.0000 1.4400 0.2600
v 0.0000 1.4400 0.2600
v 0.0000 1.4400 0.2600
v 0.0000 1.4400 0.2600
v 0.3111 1.3346 0.2600
v 0.1940 1.3346 0.4811
v -0.0692 1.3346 0.5358
v -0.2803 1.3346 0.3827
v -0.2803 1.3346 0.1373
v -0.0692 1.3346 -0.0158
v 0.1940 1.3346 0.0389
v 0.4400 1.0800 0.2600
v 0.2743 1.0800 0.5727
v -0.0979 1.0800 0.6500
v -0.3964 1.0800 0.4336
v -0.3964 1.0800 0.0864
v -0.0979 1.0800 -0.1300
v 0.2743 1.0800 -0.0527
v 0.3111 0.8254 0.2600
v 0.1940 0.8254 0.4811
v -0.0692 0.8254 0.5358
v -0.2803 0.8254 0.3827
v -0.2803 0.8254 0.1373
v -0.0692 0.8254 -0.0158
v 0.1940 0.8254 0.0389
v 0.0000 0.7200 0.2600
v 0.0000 0.7200 0.2600
v -0.0000 0.7200 0.2600
v -0.0000 0.7200 0.2600
v -0.0000 0.7200 0.2600
v -0.0000 0.7200 0.2600
v 0.0000 0.7200 0.2600
v -0.5700 0.9100 -0.1100
v -0.2700 0.9100 -0.1100
v -0.2700 1.1300 -0.1100
v -0.5700 1.1300 -0.1100
v -0.5700 0.9100 0.1500
v -0.2700 0.9100 0.1500
v -0.2700 1.1300 0.1500
v -0.5700 1.1300 0.1500
v 0.2700 0.9100 -0.1100
v 0.5700 0.9100 -0.1100
v 0.5700 1.1300 -0.1100
v 0.2700 1.1300 -0.1100
v 0.2700 0.9100 0.1500
v 0.5700 0.9100 0.1500
v 0.5700 1.1300 0.1500
v 0.2700 1.1300 0.1500
v 0.0000 1.2000 -0.3400
v 0.3000 0.9400 -0.3400
v 0.0927 0.9400 -0.0547
v -0.2427 0.9400 -0.1637
v -0.2427 0.9400 -0.5163
v 0.0927 0.9400 -0.6253
v -0.4500 0.0000 0.1900
v -0.2300 0.0000 0.1900
v -0.2300 0.2200 0.1900
v -0.4500 0.2200 0.1900
v -0.4500 0.0000 0.4100
v -0.2300 0.0000 0.4100
v -0.2300 0.2200 0.4100
v -0.4500 0.2200 0.4100
v 0.2300 0.0000 0.1900
v 0.4500 0.0000 0.1900
v 0.4500 0.2200 0.1900
v 0.2300 0.2200 0.1900
v 0.2300 0.0000 0.4100
v 0.4500 0.0000 0.4100
v 0.4500 0.2200 0.4100
v 0.2300 0.2200 0.4100
v -0.4262 0.0000 -0.4300
v -0.2062 0.0000 -0.4300
v -0.2062 0.2200 -0.4300
v -0.4262 0.2200 -0.4300
v -0.4262 0.0000 -0.2100
v -0.2062 0.0000 -0.2100
v -0.2062 0.2200 -0.2100
v -0.4262 0.2200 -0.2100
v 0.2062 0.0000 -0.4300
v 0.4262 0.0000 -0.4300
v 0.4262 0.2200 -0.4300
v 0.2062 0.2200 -0.4300
v 0.2062 0.0000 -0.2100
v 0.4262 0.0000 -0.2100
v 0.4262 0.2200 -0.2100
v 0.2062 0.2200 -0.2100
v -0.2150 1.0950 0.5150
v -0.1250 1.0950 0.5150
v -0.1250 1.1850 0.5150
v -0.2150 1.1850 0.5150
v -0.2150 1.0950 0.6050
v -0.1250 1.0950 0.6050
v -0.1250 1.1850 0.6050
v -0.2150 1.1850 0.6050
v 0.1250 1.0950 0.5150
v 0.2150 1.0950 0.5150
v 0.2150 1.1850 0.5150
v 0.1250 1.1850 0.5150
v 0.1250 1.0950 0.6050
v 0.2150 1.0950 0.6050
v 0.2150 1.1850 0.6050
v 0.1250 1.1850 0.6050

usemtl c998877
f 1 9 10
f 2 10 11
f 3 11 12
f 4 12 13
f 5 13 14
f 6 14 15
f 7 15 16
f 8 16 9
f 9 18 10
f 9 17 18
f 10 19 11
f 10 18 19
f 11 20 12
f 11 19 20
f 12 21 13
f 12 20 21
f 13 22 14
f 13 21 22
f 14 23 15
f 14 22 23
f 15 24 16
f 15 23 24
f 16 17 9
f 16 24 17
f 17 26 18
f 17 25 26
f 18 27 19
f 18 26 27
f 19 28 20
f 19 27 28
f 20 29 21
f 20 28 29
f 21 30 22
f 21 29 30
f 22 31 23
f 22 30 31
f 23 32 24
f 23 31 32
f 24 25 17
f 24 32 25

usemtl cAA9988
f 25 34 26
f 25 33 34
f 26 35 27
f 26 34 35
f 27 36 28
f 27 35 36
f 28 37 29
f 28 36 37
f 29 38 30
f 29 37 38
f 30 39 31
f 30 38 39
f 31 40 32
f 31 39 40
f 32 33 25
f 32 40 33
f 49 56 57
f 50 57 58
f 51 58 59
f 52 59 60
f 53 60 61
f 54 61 62
f 55 62 56
f 56 64 57
f 56 63 64
f 57 65 58
f 57 64 65
f 58 66 59
f 58 65 66
f 59 67 60
f 59 66 67
f 60 68 61
f 60 67 68
f 61 69 62
f 61 68 69
f 62 63 56
f 62 69 63
f 87 90 91
f 87 86 90
f 95 98 99
f 95 94 98

usemtl cBBAA99
f 33 42 34
f 34 43 35
f 35 44 36
f 36 45 37
f 37 46 38
f 38 47 39
f 39 48 40
f 40 41 33
f 63 71 64
f 63 70 71
f 64 72 65
f 64 71 72
f 65 73 66
f 65 72 73
f 66 74 67
f 66 73 74
f 67 75 68
f 67 74 75
f 68 76 69
f 68 75 76
f 69 70 63
f 69 76 70

usemtl cCCBBAA
f 70 78 71
f 71 79 72
f 72 80 73
f 73 81 74
f 74 82 75
f 75 83 76
f 76 77 70

usemtl c776655
f 84 85 86
f 84 86 87
f 89 86 90
f 89 85 86
f 88 90 91
f 88 89 90
f 84 91 88
f 84 87 91
f 84 89 85
f 84 88 89
f 92 93 94
f 92 94 95
f 97 94 98
f 97 93 94
f 96 98 99
f 96 97 98
f 92 99 96
f 92 95 99
f 92 97 93
f 92 96 97
f 100 102 103
f 100 105 101
f 106 107 108
f 106 108 109
f 111 108 112
f 111 107 108
f 110 112 113
f 110 111 112
f 106 113 110
f 106 109 113
f 109 112 113
f 109 108 112
f 106 111 107
f 106 110 111
f 114 115 116
f 114 116 117
f 119 116 120
f 119 115 116
f 118 120 121
f 118 119 120
f 114 121 118
f 114 117 121
f 117 120 121
f 117 116 120
f 114 119 115
f 114 118 119
f 122 123 124
f 122 124 125
f 127 124 128
f 127 123 124
f 126 128 129
f 126 127 128
f 122 129 126
f 122 125 129
f 125 128 129
f 125 124 128
f 122 127 123
f 122 126 127
f 130 131 132
f 130 132 133
f 135 132 136
f 135 131 132
f 134 136 137
f 134 135 136
f 130 137 134
f 130 133 137
f 133 136 137
f 133 132 136
f 130 135 131
f 130 134 135

usemtl c887766
f 100 101 102

usemtl c555544
f 100 103 104
f 100 104 105

usemtl c111122
f 138 139 140
f 138 140 141
f 143 140 144
f 143 139 140
f 142 144 145
f 142 143 144
f 138 145 142
f 138 141 145
f 141 144 145
f 141 140 144
f 138 143 139
f 138 142 143
f 146 147 148
f 146 148 149
f 151 148 152
f 151 147 148
f 150 152 153
f 150 151 152
f 146 153 150
f 146 149 153
f 149 152 153
f 149 148 152
f 146 151 147
f 146 150 151
