# TIDEPUP: built the way the design mockup builds it, from
# UV blobs with box legs, a tail and cube eyes.
#
# Y is up, +Z is the front, one world unit is one map tile. The lowest
# vertex sits on y = 0 and the model is centred on x = 0 and z = 0, so
# the game places it by its feet.
#
# Faces are wound so that (c - a) x (b - a) points out of the solid, which
# is what tools/obj2cpp.py bakes as the face normal. The mockup's own
# winding is the opposite convention, so every face here is reversed from
# the JavaScript it was ported from.
#
# Low and long, with a blunt muzzle and a flat rudder tail.
# About 1.36 units tall, 250 triangles.

mtllib tidepup.mtl

v 0.0000 0.8600 0.0000
v 0.0000 0.8600 0.0000
v 0.0000 0.8600 0.0000
v 0.0000 0.8600 0.0000
v 0.0000 0.8600 0.0000
v 0.0000 0.8600 0.0000
v 0.0000 0.8600 0.0000
v 0.0000 0.8600 0.0000
v 0.3879 0.7760 0.0000
v 0.2743 0.7760 0.3325
v 0.0000 0.7760 0.4702
v -0.2743 0.7760 0.3325
v -0.3879 0.7760 0.0000
v -0.2743 0.7760 -0.3325
v -0.0000 0.7760 -0.4702
v 0.2743 0.7760 -0.3325
v 0.6277 0.5560 0.0000
v 0.4438 0.5560 0.5380
v 0.0000 0.5560 0.7608
v -0.4438 0.5560 0.5380
v -0.6277 0.5560 0.0000
v -0.4438 0.5560 -0.5380
v -0.0000 0.5560 -0.7608
v 0.4438 0.5560 -0.5380
v 0.6277 0.2840 0.0000
v 0.4438 0.2840 0.5380
v 0.0000 0.2840 0.7608
v -0.4438 0.2840 0.5380
v -0.6277 0.2840 0.0000
v -0.4438 0.2840 -0.5380
v -0.0000 0.2840 -0.7608
v 0.4438 0.2840 -0.5380
v 0.3879 0.0640 0.0000
v 0.2743 0.0640 0.3325
v 0.0000 0.0640 0.4702
v -0.2743 0.0640 0.3325
v -0.3879 0.0640 0.0000
v -0.2743 0.0640 -0.3325
v -0.0000 0.0640 -0.4702
v 0.2743 0.0640 -0.3325
v 0.0000 -0.0200 0.0000
v 0.0000 -0.0200 0.0000
v 0.0000 -0.0200 0.0000
v -0.0000 -0.0200 0.0000
v -0.0000 -0.0200 0.0000
v -0.0000 -0.0200 -0.0000
v -0.0000 -0.0200 -0.0000
v 0.0000 -0.0200 -0.0000
v 0.0000 1.3600 0.3400
v 0.0000 1.3600 0.3400
v 0.0000 1.3600 0.3400
v 0.0000 1.3600 0.3400
v 0.0000 1.3600 0.3400
v 0.0000 1.3600 0.3400
v 0.0000 1.3600 0.3400
v 0.2687 1.2604 0.3400
v 0.1675 1.2604 0.5832
v -0.0598 1.2604 0.6433
v -0.2421 1.2604 0.4750
v -0.2421 1.2604 0.2050
v -0.0598 1.2604 0.0367
v 0.1675 1.2604 0.0968
v 0.3800 1.0200 0.3400
v 0.2369 1.0200 0.6840
v -0.0846 1.0200 0.7690
v -0.3424 1.0200 0.5309
v -0.3424 1.0200 0.1491
v -0.0846 1.0200 -0.0890
v 0.2369 1.0200 -0.0040
v 0.2687 0.7796 0.3400
v 0.1675 0.7796 0.5832
v -0.0598 0.7796 0.6433
v -0.2421 0.7796 0.4750
v -0.2421 0.7796 0.2050
v -0.0598 0.7796 0.0367
v 0.1675 0.7796 0.0968
v 0.0000 0.6800 0.3400
v 0.0000 0.6800 0.3400
v -0.0000 0.6800 0.3400
v -0.0000 0.6800 0.3400
v -0.0000 0.6800 0.3400
v -0.0000 0.6800 0.3400
v 0.0000 0.6800 0.3400
v 0.0000 1.1600 0.7200
v 0.0000 1.1600 0.7200
v 0.0000 1.1600 0.7200
v 0.0000 1.1600 0.7200
v 0.0000 1.1600 0.7200
v 0.0000 1.1600 0.7200
v 0.1131 1.1131 0.7200
v 0.0566 1.1131 0.9037
v -0.0566 1.1131 0.9037
v -0.1131 1.1131 0.7200
v -0.0566 1.1131 0.5363
v 0.0566 1.1131 0.5363
v 0.1600 1.0000 0.7200
v 0.0800 1.0000 0.9798
v -0.0800 1.0000 0.9798
v -0.1600 1.0000 0.7200
v -0.0800 1.0000 0.4602
v 0.0800 1.0000 0.4602
v 0.1131 0.8869 0.7200
v 0.0566 0.8869 0.9037
v -0.0566 0.8869 0.9037
v -0.1131 0.8869 0.7200
v -0.0566 0.8869 0.5363
v 0.0566 0.8869 0.5363
v 0.0000 0.8400 0.7200
v 0.0000 0.8400 0.7200
v -0.0000 0.8400 0.7200
v -0.0000 0.8400 0.7200
v -0.0000 0.8400 0.7200
v 0.0000 0.8400 0.7200
v 0.0000 0.5800 -0.8600
v 0.0000 0.5800 -0.8600
v 0.0000 0.5800 -0.8600
v 0.0000 0.5800 -0.8600
v 0.0000 0.5800 -0.8600
v 0.0000 0.5800 -0.8600
v 0.0990 0.5331 -0.8600
v 0.0495 0.5331 -0.5783
v -0.0495 0.5331 -0.5783
v -0.0990 0.5331 -0.8600
v -0.0495 0.5331 -1.1417
v 0.0495 0.5331 -1.1417
v 0.1400 0.4200 -0.8600
v 0.0700 0.4200 -0.4616
v -0.0700 0.4200 -0.4616
v -0.1400 0.4200 -0.8600
v -0.0700 0.4200 -1.2584
v 0.0700 0.4200 -1.2584
v 0.0990 0.3069 -0.8600
v 0.0495 0.3069 -0.5783
v -0.0495 0.3069 -0.5783
v -0.0990 0.3069 -0.8600
v -0.0495 0.3069 -1.1417
v 0.0495 0.3069 -1.1417
v 0.0000 0.2600 -0.8600
v 0.0000 0.2600 -0.8600
v -0.0000 0.2600 -0.8600
v -0.0000 0.2600 -0.8600
v -0.0000 0.2600 -0.8600
v 0.0000 0.2600 -0.8600
v -0.4200 0.0000 0.1700
v -0.2200 0.0000 0.1700
v -0.2200 0.2200 0.1700
v -0.4200 0.2200 0.1700
v -0.4200 0.0000 0.3900
v -0.2200 0.0000 0.3900
v -0.2200 0.2200 0.3900
v -0.4200 0.2200 0.3900
v 0.2200 0.0000 0.1700
v 0.4200 0.0000 0.1700
v 0.4200 0.2200 0.1700
v 0.2200 0.2200 0.1700
v 0.2200 0.0000 0.3900
v 0.4200 0.0000 0.3900
v 0.4200 0.2200 0.3900
v 0.2200 0.2200 0.3900
v -0.3976 0.0000 -0.4300
v -0.1976 0.0000 -0.4300
v -0.1976 0.2200 -0.4300
v -0.3976 0.2200 -0.4300
v -0.3976 0.0000 -0.2100
v -0.1976 0.0000 -0.2100
v -0.1976 0.2200 -0.2100
v -0.3976 0.2200 -0.2100
v 0.1976 0.0000 -0.4300
v 0.3976 0.0000 -0.4300
v 0.3976 0.2200 -0.4300
v 0.1976 0.2200 -0.4300
v 0.1976 0.0000 -0.2100
v 0.3976 0.0000 -0.2100
v 0.3976 0.2200 -0.2100
v 0.1976 0.2200 -0.2100
v -0.2050 1.0750 0.5750
v -0.1150 1.0750 0.5750
v -0.1150 1.1650 0.5750
v -0.2050 1.1650 0.5750
v -0.2050 1.0750 0.6650
v -0.1150 1.0750 0.6650
v -0.1150 1.1650 0.6650
v -0.2050 1.1650 0.6650
v 0.1150 1.0750 0.5750
v 0.2050 1.0750 0.5750
v 0.2050 1.1650 0.5750
v 0.1150 1.1650 0.5750
v 0.1150 1.0750 0.6650
v 0.2050 1.0750 0.6650
v 0.2050 1.1650 0.6650
v 0.1150 1.1650 0.6650

usemtl c4488CC
f 1 9 10
f 2 10 11
f 3 11 12
f 4 12 13
f 5 13 14
f 6 14 15
f 7 15 16
f 8 16 9
f 9 18 10
f 9 17 18
f 10 19 11
f 10 18 19
f 11 20 12
f 11 19 20
f 12 21 13
f 12 20 21
f 13 22 14
f 13 21 22
f 14 23 15
f 14 22 23
f 15 24 16
f 15 23 24
f 16 17 9
f 16 24 17
f 114 120 121
f 115 121 122
f 116 122 123
f 117 123 124
f 118 124 125
f 119 125 120
f 120 127 121
f 120 126 127
f 121 128 122
f 121 127 128
f 122 129 123
f 122 128 129
f 123 130 124
f 123 129 130
f 124 131 125
f 124 130 131
f 125 126 120
f 125 131 126

usemtl c5588CC
f 17 26 18
f 17 25 26
f 18 27 19
f 18 26 27
f 19 28 20
f 19 27 28
f 20 29 21
f 20 28 29
f 21 30 22
f 21 29 30
f 22 31 23
f 22 30 31
f 23 32 24
f 23 31 32
f 24 25 17
f 24 32 25

usemtl c77AADD
f 25 34 26
f 25 33 34
f 26 35 27
f 26 34 35
f 27 36 28
f 27 35 36
f 28 37 29
f 28 36 37
f 29 38 30
f 29 37 38
f 30 39 31
f 30 38 39
f 31 40 32
f 31 39 40
f 32 33 25
f 32 40 33

usemtl cAACCEE
f 33 42 34
f 34 43 35
f 35 44 36
f 36 45 37
f 37 46 38
f 38 47 39
f 39 48 40
f 40 41 33

usemtl c5599DD
f 49 56 57
f 50 57 58
f 51 58 59
f 52 59 60
f 53 60 61
f 54 61 62
f 55 62 56
f 56 64 57
f 56 63 64
f 57 65 58
f 57 64 65
f 58 66 59
f 58 65 66
f 59 67 60
f 59 66 67
f 60 68 61
f 60 67 68
f 61 69 62
f 61 68 69
f 62 63 56
f 62 69 63

usemtl c77BBEE
f 63 71 64
f 63 70 71
f 64 72 65
f 64 71 72
f 65 73 66
f 65 72 73
f 66 74 67
f 66 73 74
f 67 75 68
f 67 74 75
f 68 76 69
f 68 75 76
f 69 70 63
f 69 76 70

usemtl cAADDFF
f 70 78 71
f 71 79 72
f 72 80 73
f 73 81 74
f 74 82 75
f 75 83 76
f 76 77 70

usemtl c66AAEE
f 84 90 91
f 85 91 92
f 86 92 93
f 87 93 94
f 88 94 95
f 89 95 90
f 90 97 91
f 90 96 97
f 91 98 92
f 91 97 98
f 92 99 93
f 92 98 99
f 93 100 94
f 93 99 100
f 94 101 95
f 94 100 101
f 95 96 90
f 95 101 96

usemtl c88BBEE
f 96 103 97
f 96 102 103
f 97 104 98
f 97 103 104
f 98 105 99
f 98 104 105
f 99 106 100
f 99 105 106
f 100 107 101
f 100 106 107
f 101 102 96
f 101 107 102
f 132 139 133
f 133 140 134
f 134 141 135
f 135 142 136
f 136 143 137
f 137 138 132

usemtl cBBDDFF
f 102 109 103
f 103 110 104
f 104 111 105
f 105 112 106
f 106 113 107
f 107 108 102

usemtl c6699DD
f 126 133 127
f 126 132 133
f 127 134 128
f 127 133 134
f 128 135 129
f 128 134 135
f 129 136 130
f 129 135 136
f 130 137 131
f 130 136 137
f 131 132 126
f 131 137 132

usemtl c3377AA
f 144 145 146
f 144 146 147
f 149 146 150
f 149 145 146
f 148 150 151
f 148 149 150
f 144 151 148
f 144 147 151
f 147 150 151
f 147 146 150
f 144 149 145
f 144 148 149
f 152 153 154
f 152 154 155
f 157 154 158
f 157 153 154
f 156 158 159
f 156 157 158
f 152 159 156
f 152 155 159
f 155 158 159
f 155 154 158
f 152 157 153
f 152 156 157
f 160 161 162
f 160 162 163
f 165 162 166
f 165 161 162
f 164 166 167
f 164 165 166
f 160 167 164
f 160 163 167
f 163 166 167
f 163 162 166
f 160 165 161
f 160 164 165
f 168 169 170
f 168 170 171
f 173 170 174
f 173 169 170
f 172 174 175
f 172 173 174
f 168 175 172
f 168 171 175
f 171 174 175
f 171 170 174
f 168 173 169
f 168 172 173

usemtl c111122
f 176 177 178
f 176 178 179
f 181 178 182
f 181 177 178
f 180 182 183
f 180 181 182
f 176 183 180
f 176 179 183
f 179 182 183
f 179 178 182
f 176 181 177
f 176 180 181
f 184 185 186
f 184 186 187
f 189 186 190
f 189 185 186
f 188 190 191
f 188 189 190
f 184 191 188
f 184 187 191
f 187 190 191
f 187 186 190
f 184 189 185
f 184 188 189
